<svg width="28" height="30" viewBox="0 0 28 30" fill="none" xmlns="http://www.w3.org/2000/svg">
<circle cx="17.0933" cy="3.53174" r="3.03174" fill="#E73333"/>
<path d="M12.9218 4.63456L13.659 4.49658L13.5847 4.09985L13.2127 3.94328L12.9218 4.63456ZM4.26503 6.76576L3.67978 6.29668L3.67578 6.30176L4.26503 6.76576ZM1.77513 14.4832L1.20787 13.9926L1.20757 13.993L1.77513 14.4832ZM1.91644 19.5559L1.34189 20.038L1.35204 20.0501L1.36269 20.0618L1.91644 19.5559ZM4.99375 21.0848L5.08042 20.3399L5.06858 20.3385L5.05669 20.3375L4.99375 21.0848ZM15.0462 21.0848L14.9832 20.3375L14.9812 20.3376L15.0462 21.0848ZM18.1224 19.5559L18.6762 20.0618L18.687 20.0499L18.6974 20.0375L18.1224 19.5559ZM18.2637 14.4832L17.6893 14.9656L17.6962 14.9735L18.2637 14.4832ZM16.5886 8.06357L17.2694 7.74872L17.0933 7.36815L16.6769 7.31879L16.5886 8.06357ZM13.2127 3.94328C12.2188 3.52502 11.1412 3.29688 10.0664 3.29688V4.79688C10.9313 4.79688 11.8117 4.9811 12.6309 5.32584L13.2127 3.94328ZM10.0664 3.29688H9.9725V4.79688H10.0664V3.29688ZM9.9725 3.29688C7.58987 3.29688 5.18829 4.41462 3.6798 6.2967L4.85025 7.23481C6.06684 5.71693 8.0334 4.79688 9.9725 4.79688V3.29688ZM3.67578 6.30176C2.64984 7.60465 2.15249 8.96013 2.15249 10.9394H3.65249C3.65249 9.27902 4.04732 8.25453 4.85427 7.22975L3.67578 6.30176ZM2.15249 10.9394V11.4015H3.65249V10.9394H2.15249ZM2.15249 11.4015C2.15249 12.0195 2.07773 12.4646 1.93598 12.8423C1.79446 13.2195 1.56937 13.5746 1.20787 13.9926L2.34238 14.9739C2.77921 14.4688 3.11781 13.9625 3.34038 13.3693C3.56273 12.7767 3.65249 12.1423 3.65249 11.4015H2.15249ZM1.20757 13.993C0.453691 14.8657 0.25 15.9493 0.25 16.9831H1.75C1.75 16.1251 1.92175 15.4608 2.34269 14.9735L1.20757 13.993ZM0.25 16.9831C0.25 18.0949 0.609741 19.1654 1.34189 20.038L2.491 19.0739C1.99982 18.4884 1.75 17.7652 1.75 16.9831H0.25ZM1.36269 20.0618C2.28592 21.0725 3.58741 21.719 4.93081 21.8322L5.05669 20.3375C4.09686 20.2566 3.14362 19.7873 2.47019 19.0501L1.36269 20.0618ZM4.90708 21.8298C6.60985 22.0279 8.30703 22.1018 10.02 22.1018V20.6018C8.34973 20.6018 6.71229 20.5297 5.08042 20.3399L4.90708 21.8298ZM10.02 22.1018C11.7444 22.1018 13.4383 21.9773 15.1111 21.832L14.9812 20.3376C13.3173 20.4822 11.6766 20.6018 10.02 20.6018V22.1018ZM15.1092 21.8322C16.4515 21.719 17.753 21.0724 18.6762 20.0618L17.5687 19.0501C16.8952 19.7874 15.9419 20.2567 14.9832 20.3375L15.1092 21.8322ZM18.6974 20.0375C19.4277 19.1655 19.7889 18.0955 19.7889 16.9831H18.2889C18.2889 17.7647 18.0383 18.4883 17.5474 19.0744L18.6974 20.0375ZM19.7889 16.9831C19.7889 15.9493 19.5852 14.8657 18.8313 13.993L17.6962 14.9735C18.1171 15.4608 18.2889 16.1251 18.2889 16.9831H19.7889ZM18.8381 14.0009C18.4833 13.5785 18.2555 13.22 18.1102 12.8387C17.9654 12.4589 17.8864 12.014 17.8864 11.4015H16.3864C16.3864 12.1479 16.4834 12.7823 16.7086 13.373C16.9331 13.9621 17.269 14.465 17.6894 14.9656L18.8381 14.0009ZM17.8864 11.4015V10.9394H16.3864V11.4015H17.8864ZM17.8864 10.9394C17.8864 9.6858 17.6979 8.67516 17.2694 7.74872L15.9079 8.37842C16.2232 9.06012 16.3864 9.84422 16.3864 10.9394H17.8864ZM16.6769 7.31879C15.1589 7.13882 13.9372 5.98301 13.659 4.49658L12.1846 4.77254C12.5827 6.89949 14.3265 8.55065 16.5004 8.80836L16.6769 7.31879Z" fill="#8487A3"/>
<path opacity="0.8" d="M12.1507 24.6882C11.6202 24.5727 8.3879 24.5727 7.85744 24.6882C7.40396 24.795 6.91357 25.0434 6.91357 25.5883C6.93994 26.1081 7.23839 26.5669 7.65179 26.8578L7.65074 26.8589C8.18542 27.2839 8.8129 27.5542 9.46992 27.6512C9.82004 27.7002 10.1765 27.698 10.5393 27.6512C11.1952 27.5542 11.8227 27.2839 12.3574 26.8589L12.3563 26.8578C12.7697 26.5669 13.0682 26.1081 13.0946 25.5883C13.0946 25.0434 12.6042 24.795 12.1507 24.6882" stroke="#8487A3" stroke-width="1.5"/>
</svg>
