<svg width="14" height="15" viewBox="0 0 14 15" fill="none" xmlns="http://www.w3.org/2000/svg">
<path d="M13.8334 12.0035H12.364V8.0207C12.364 7.91998 12.2894 7.83857 12.1972 7.83857L10.4977 7.8387V5.17404C10.4977 5.07358 10.4232 4.99192 10.3309 4.99192H9.05074V3.79366C9.38954 3.59883 9.60681 3.31422 9.69369 2.94452C9.93363 1.92368 9.07727 0.629632 9.04061 0.575011C9.00921 0.5284 8.95978 0.500712 8.90674 0.500332H8.90605C8.85336 0.500332 8.80381 0.527511 8.77218 0.573739C8.14471 1.4945 7.91419 2.286 8.08668 2.92598C8.21578 3.40516 8.53574 3.6612 8.71706 3.77206V4.99156H7.04969V3.79329C7.38849 3.59847 7.60564 3.31386 7.69264 2.94429C7.93258 1.92345 7.0761 0.629401 7.03956 0.57478C7.00816 0.528169 6.9585 0.500481 6.90569 0.500101C6.85033 0.500228 6.80276 0.527025 6.77136 0.573508C6.14389 1.49427 5.91337 2.28577 6.08574 2.92575C6.21484 3.40519 6.53516 3.66096 6.71648 3.77196V4.99146H5.04911V3.79319C5.38791 3.59837 5.60506 3.31376 5.69194 2.94419C5.93188 1.92335 5.07552 0.629301 5.03887 0.574679C5.00746 0.528068 4.9578 0.50038 4.905 0.5H4.9043C4.85161 0.5 4.80206 0.527179 4.77055 0.573408C4.14308 1.49417 3.91256 2.28567 4.08493 2.92565C4.21403 3.40508 4.53434 3.66086 4.71567 3.77186V4.99136H3.57819C3.48619 4.99136 3.41141 5.07289 3.41141 5.17348V7.75C3.40373 7.77908 3.39559 7.80765 3.39059 7.83788L1.71204 7.83814C1.62005 7.83814 1.54526 7.91954 1.54526 8.02026V12.0037H0.166785C0.0747878 12.0037 0 12.0851 0 12.1859V13.1487C0 13.2494 0.0746687 13.3308 0.166785 13.3308H0.678551L1.01724 14.3786C1.04073 14.4512 1.10377 14.5 1.17448 14.5H12.8887C12.9594 14.5 13.0225 14.4512 13.0459 14.3786L13.3848 13.3308H13.8332C13.9254 13.3308 14 13.2494 14 13.1487V12.1859C14.0001 12.0851 13.9256 12.0037 13.8333 12.0037L13.8334 12.0035ZM8.40669 2.82351C8.27968 2.35234 8.45054 1.72672 8.9011 1.00445C9.11882 1.38914 9.521 2.21621 9.37073 2.85427C9.32153 3.06345 9.21465 3.23136 9.05077 3.36521V3.14765C9.05077 3.0472 8.97622 2.96553 8.88399 2.96553C8.79175 2.96553 8.7172 3.04707 8.7172 3.14765V3.3332C8.59962 3.22551 8.47063 3.06129 8.40665 2.82353L8.40669 2.82351ZM6.40447 2.81856C6.2799 2.34813 6.45111 1.72418 6.90006 1.00444C7.11779 1.38913 7.51997 2.21619 7.36994 2.85426C7.32074 3.06331 7.21409 3.23134 7.0501 3.3652V3.14764C7.0501 3.04718 6.97543 2.96552 6.88331 2.96552C6.79132 2.96552 6.71653 3.04705 6.71653 3.14764V3.3337C6.59813 3.2255 6.46821 3.0595 6.40449 2.81857L6.40447 2.81856ZM4.40364 2.81856C4.27908 2.34813 4.45028 1.72418 4.89924 1.00444C5.11697 1.38913 5.51915 2.21619 5.36911 2.85426C5.31992 3.06331 5.21326 3.23121 5.04928 3.3652V3.14764C5.04928 3.04718 4.97461 2.96552 4.88249 2.96552C4.79049 2.96552 4.71571 3.04705 4.71571 3.14764V3.3337C4.5973 3.2255 4.46739 3.0595 4.40367 2.81857L4.40364 2.81856ZM3.745 5.35609H10.1644V7.38548C10.0168 7.2167 9.81023 7.11039 9.58031 7.11039C9.30373 7.11039 9.05938 7.26318 8.91342 7.49496C8.76734 7.26318 8.52311 7.11039 8.24653 7.11039C7.97996 7.11039 7.74513 7.25353 7.59741 7.47109C7.44982 7.25354 7.21487 7.11039 6.94842 7.11039C6.62358 7.11039 6.3448 7.3216 6.2159 7.62348C6.08704 7.32147 5.80835 7.11039 5.48363 7.11039C5.21705 7.11039 4.9821 7.25365 4.83451 7.47122C4.68692 7.25341 4.45197 7.11039 4.1854 7.11039C4.02268 7.11039 3.87172 7.16412 3.7447 7.25454V5.35608L3.745 5.35609ZM10.0319 7.83875H9.12831C9.18937 7.62868 9.36778 7.47476 9.58016 7.47476C9.79266 7.47476 9.97096 7.62844 10.0319 7.83875ZM8.69797 7.83875H7.79437C7.85544 7.62868 8.03385 7.47476 8.24623 7.47476C8.45872 7.47476 8.63702 7.62844 8.69797 7.83875ZM7.4001 7.83875H6.4965C6.55756 7.62868 6.73598 7.47476 6.94836 7.47476C7.16085 7.47476 7.33915 7.62844 7.4001 7.83875ZM5.93555 7.83875H5.03219C5.09325 7.62868 5.27143 7.47476 5.48392 7.47476C5.69619 7.47476 5.87448 7.62844 5.93555 7.83875ZM3.74503 7.80014C3.81574 7.60963 3.98625 7.47475 4.18572 7.47475C4.3981 7.47475 4.5764 7.62855 4.63746 7.83873H3.74503V7.80014ZM1.87876 8.20287H12.0307V11.5202C11.8574 11.2429 11.5661 11.0604 11.2359 11.0604C10.8063 11.0604 10.4417 11.3695 10.3188 11.7947C10.1958 11.3697 9.83122 11.0604 9.4017 11.0604C9.02371 11.0604 8.69687 11.3002 8.53987 11.6474C8.38297 11.3004 8.05615 11.0604 7.67816 11.0604C7.30006 11.0604 6.97298 11.3003 6.8161 11.6475C6.6592 11.3006 6.33226 11.0604 5.95428 11.0604C5.57629 11.0604 5.24945 11.3002 5.09245 11.6474C4.93544 11.3004 4.60861 11.0604 4.23062 11.0604C3.85264 11.0604 3.5258 11.3002 3.3688 11.6474C3.21178 11.3004 2.88496 11.0604 2.50697 11.0604C2.26692 11.0604 2.04755 11.1577 1.87891 11.3169L1.87876 8.20287ZM11.8541 12.0036H10.6176C10.6648 11.6762 10.9226 11.4242 11.2359 11.4242C11.5491 11.4242 11.8069 11.6764 11.8542 12.0036H11.8541ZM10.0201 12.0036H8.78351C8.83073 11.6762 9.08859 11.4242 9.40182 11.4242C9.71492 11.4242 9.97289 11.6764 10.0201 12.0036H10.0201ZM8.2964 12.0036H7.05995C7.10717 11.6762 7.36538 11.4242 7.67825 11.4242C7.99101 11.4242 8.24933 11.6764 8.29643 12.0036H8.2964ZM6.57251 12.0036H5.33595C5.38316 11.6762 5.64125 11.4242 5.95425 11.4242C6.26724 11.4242 6.52544 11.6764 6.57254 12.0036H6.57251ZM4.84883 12.0036H3.61226C3.65948 11.6762 3.91757 11.4242 4.23056 11.4242C4.54355 11.4242 4.80164 11.6764 4.84886 12.0036H4.84883ZM3.12503 12.0036H1.88847C1.93568 11.6762 2.19377 11.4242 2.50676 11.4242C2.81975 11.4242 3.07796 11.6764 3.12506 12.0036H3.12503ZM12.7708 14.1358H1.29241L1.03211 13.3307H13.031L12.7708 14.1358ZM13.6667 12.9664H0.333666V12.3677H13.6667V12.9664Z" fill="white"/>
<path d="M2.8354 9.18146C2.86378 9.20204 2.89588 9.21207 2.92763 9.21207C2.98148 9.21207 3.03452 9.18362 3.06651 9.13104C3.11756 9.04735 3.09686 8.93418 3.0201 8.87856L2.84808 8.75333C2.77144 8.69745 2.66781 8.72006 2.61686 8.80375C2.56581 8.88745 2.58651 9.00061 2.66327 9.05623L2.8354 9.18146Z" fill="white"/>
<path d="M5.97387 10.0099C5.98434 10.0099 5.99504 10.0087 6.00574 10.0065C6.09611 9.98754 6.15531 9.8919 6.13775 9.79322L6.09856 9.5716C6.08099 9.47279 5.99306 9.40738 5.90316 9.42745C5.81279 9.44637 5.75359 9.54201 5.77115 9.64069L5.81035 9.86231C5.8257 9.94944 5.8956 10.0099 5.97387 10.0099V10.0099Z" fill="white"/>
<path d="M9.59997 9.43183C9.61044 9.43183 9.62114 9.43069 9.63161 9.4284C9.7221 9.40948 9.78118 9.31385 9.76362 9.21516L9.72442 8.99354C9.70709 8.89486 9.6187 8.82907 9.52914 8.84939C9.43865 8.86832 9.37957 8.96395 9.39713 9.06263L9.43633 9.28425C9.4518 9.37138 9.5217 9.43183 9.59997 9.43183V9.43183Z" fill="white"/>
<path d="M11.0149 9.19507C11.0254 9.19507 11.0361 9.19393 11.0468 9.19164C11.1371 9.17272 11.1962 9.07709 11.1787 8.97828L11.1395 8.75691C11.1221 8.65835 11.0351 8.5932 10.9441 8.61289C10.8537 8.63181 10.7946 8.72744 10.8122 8.82625L10.8514 9.04762C10.8667 9.13462 10.9366 9.19507 11.0149 9.19507V9.19507Z" fill="white"/>
<path d="M11.0725 10.0998L11.1117 10.3212C11.127 10.4082 11.1969 10.4686 11.2751 10.4686C11.2855 10.4686 11.2962 10.4675 11.3069 10.4652C11.3973 10.4463 11.4564 10.3506 11.4388 10.2518L11.3996 10.0305C11.3823 9.93177 11.2958 9.86637 11.2042 9.88644C11.114 9.90523 11.0548 10.0009 11.0725 10.0998V10.0998Z" fill="white"/>
<path d="M9.70978 10.766C9.72816 10.8494 9.79643 10.9055 9.87168 10.9055C9.88471 10.9055 9.89785 10.9038 9.91088 10.9004L10.1117 10.8474C10.2013 10.8239 10.2563 10.7254 10.2347 10.6278C10.2132 10.53 10.1217 10.4695 10.0336 10.4936L9.83272 10.5465C9.74316 10.5699 9.68815 10.6685 9.70978 10.766V10.766Z" fill="white"/>
<path d="M7.87493 10.1337C7.86539 10.2338 7.93215 10.3232 8.02369 10.3339L8.22932 10.3572C8.23513 10.3577 8.24095 10.3581 8.24665 10.3581C8.33097 10.3581 8.40343 10.2884 8.41238 10.1949C8.42192 10.0948 8.35516 10.0054 8.26363 9.99476L8.058 9.9714C7.96542 9.96289 7.88447 10.0338 7.87493 10.1337L7.87493 10.1337Z" fill="white"/>
<path d="M4.27123 9.0722L4.47686 9.09557C4.48267 9.09607 4.48849 9.09645 4.49419 9.09645C4.57851 9.09645 4.65097 9.02673 4.65992 8.93326C4.66946 8.83318 4.60293 8.74377 4.51117 8.7331L4.30554 8.70973C4.21296 8.70084 4.13201 8.77222 4.12247 8.87217C4.11305 8.97225 4.17958 9.06178 4.27123 9.0722L4.27123 9.0722Z" fill="white"/>
<path d="M7.60591 9.07214L7.81166 9.09551C7.81747 9.09602 7.82329 9.0964 7.82899 9.0964C7.91331 9.0964 7.98577 9.02667 7.99472 8.9332C8.00426 8.83312 7.9375 8.74371 7.84597 8.73304L7.64022 8.70968C7.54683 8.70117 7.46669 8.77216 7.45692 8.87211C7.44762 8.97219 7.51438 9.06173 7.60591 9.07214L7.60591 9.07214Z" fill="white"/>
<path d="M6.6498 10.9104C6.67981 10.9348 6.7147 10.9465 6.74936 10.9465C6.80019 10.9465 6.85043 10.9212 6.88312 10.8734C6.93836 10.7928 6.92313 10.6787 6.84927 10.6185L6.68353 10.4834C6.60979 10.4233 6.50547 10.4398 6.45022 10.5204C6.39498 10.601 6.41021 10.7151 6.48407 10.7753L6.6498 10.9104Z" fill="white"/>
<path d="M2.73904 10.6448C2.76905 10.6694 2.80406 10.681 2.83872 10.681C2.88954 10.681 2.93955 10.6557 2.97247 10.6079C3.02772 10.5274 3.01248 10.4132 2.93863 10.3532L2.77301 10.218C2.69915 10.1575 2.59494 10.1744 2.53958 10.2549C2.48433 10.3354 2.49957 10.4496 2.57342 10.5096L2.73904 10.6448Z" fill="white"/>
<path d="M4.88178 11.0163C4.90946 11.0352 4.93993 11.0441 4.97029 11.0441C5.02577 11.0441 5.07997 11.0139 5.11172 10.9587L5.22175 10.7672C5.27059 10.682 5.2471 10.5697 5.16918 10.5163C5.09113 10.4625 4.98843 10.4886 4.93923 10.5737L4.82921 10.7652C4.78024 10.8505 4.80397 10.9629 4.88178 11.0163V11.0163Z" fill="white"/>
<path d="M4.06559 10.1404L4.27122 10.1635C4.27703 10.1641 4.28273 10.1644 4.28855 10.1644C4.37287 10.1644 4.44544 10.0947 4.45428 10.0011C4.46382 9.90103 4.39706 9.81162 4.30553 9.80121L4.0999 9.77809C4.0072 9.7692 3.92637 9.84058 3.91695 9.94066C3.90729 10.0406 3.97382 10.13 4.06559 10.1404L4.06559 10.1404Z" fill="white"/>
<path d="M5.95386 6.22057C5.96432 6.22057 5.97502 6.21943 5.98572 6.21727C6.0761 6.19809 6.13529 6.10271 6.11773 6.0039L6.07854 5.78228C6.06097 5.6836 5.9727 5.61896 5.88314 5.63813C5.79277 5.65731 5.73357 5.75269 5.75113 5.8515L5.79033 6.07312C5.8058 6.16012 5.87546 6.22057 5.95386 6.22057V6.22057Z" fill="white"/>
<path d="M9.47897 6.09582L9.6846 6.11919C9.69042 6.11995 9.69623 6.12008 9.70193 6.12008C9.78626 6.12008 9.85871 6.05048 9.86767 5.95675C9.87721 5.8568 9.81045 5.76726 9.71891 5.75685L9.51328 5.73348C9.42059 5.72268 9.33952 5.79571 9.32999 5.89592C9.32057 5.996 9.38744 6.08541 9.47898 6.09582L9.47897 6.09582Z" fill="white"/>
<path d="M8.48133 6.65913C8.50471 6.73546 8.56973 6.78385 8.63951 6.78385C8.65684 6.78385 8.67464 6.7808 8.69208 6.77432C8.77943 6.7427 8.82676 6.63957 8.7978 6.54394L8.73244 6.32969C8.70325 6.23431 8.60892 6.18262 8.52146 6.21449C8.43411 6.24612 8.38678 6.34924 8.41574 6.44488L8.48133 6.65913Z" fill="white"/>
<path d="M4.33307 6.01075C4.4174 6.01075 4.48986 5.94115 4.49881 5.84742C4.50835 5.74747 4.44182 5.65793 4.35005 5.64752L4.14443 5.62415C4.05173 5.6131 3.9709 5.68638 3.96136 5.78659C3.95182 5.88654 4.01835 5.97608 4.11012 5.98649L4.31574 6.00986C4.32156 6.01062 4.32738 6.01075 4.33307 6.01075L4.33307 6.01075Z" fill="white"/>
<path d="M7.60591 6.20932L7.81166 6.23269C7.81747 6.23345 7.82329 6.23358 7.82899 6.23358C7.91331 6.23358 7.98577 6.16386 7.99472 6.07026C8.00426 5.9703 7.9375 5.88077 7.84597 5.87035L7.64022 5.84699C7.54683 5.83492 7.46669 5.90947 7.45692 6.00942C7.44762 6.10937 7.51438 6.19891 7.60591 6.20932L7.60591 6.20932Z" fill="white"/>
<path d="M6.46361 6.67599L6.66936 6.69935C6.67517 6.70012 6.68099 6.70024 6.68669 6.70024C6.77101 6.70024 6.84347 6.63052 6.85242 6.53692C6.86196 6.43697 6.79543 6.34743 6.70367 6.33702L6.49792 6.31365C6.40487 6.30234 6.32439 6.37588 6.31485 6.47608C6.30543 6.57629 6.37196 6.66557 6.46361 6.67599L6.46361 6.67599Z" fill="white"/>
<path d="M4.22552 6.65188C4.21598 6.75184 4.28274 6.84137 4.37427 6.85166L4.5799 6.87477C4.58572 6.87554 4.59142 6.87566 4.59723 6.87566C4.68155 6.87566 4.75413 6.80594 4.76297 6.71234C4.77251 6.61239 4.70575 6.52285 4.61421 6.51256L4.40858 6.48945C4.31623 6.47802 4.23482 6.55193 4.22552 6.65189L4.22552 6.65188Z" fill="white"/>
</svg>
