<svg width="14" height="15" viewBox="0 0 14 15" fill="none" xmlns="http://www.w3.org/2000/svg">
<path d="M12.25 4.58366V10.417C12.25 12.167 11.375 13.3337 9.33333 13.3337H4.66667C2.625 13.3337 1.75 12.167 1.75 10.417V4.58366C1.75 2.83366 2.625 1.66699 4.66667 1.66699H9.33333C11.375 1.66699 12.25 2.83366 12.25 4.58366Z" stroke="#6B5DD3" stroke-miterlimit="10" stroke-linecap="round" stroke-linejoin="round"/>
<path d="M9.04159 1.66699V6.25198C9.04159 6.50865 8.73824 6.63698 8.55157 6.46781L7.19827 5.21951C7.08743 5.11451 6.9124 5.11451 6.80157 5.21951L5.44827 6.46781C5.2616 6.63698 4.95825 6.50865 4.95825 6.25198V1.66699H9.04159Z" stroke="#6B5DD3" stroke-miterlimit="10" stroke-linecap="round" stroke-linejoin="round"/>
<path d="M7.72925 8.66699H10.2084" stroke="#6B5DD3" stroke-miterlimit="10" stroke-linecap="round" stroke-linejoin="round"/>
<path d="M5.25 11H10.2083" stroke="#6B5DD3" stroke-miterlimit="10" stroke-linecap="round" stroke-linejoin="round"/>
</svg>
