<svg width="36" height="32" viewBox="0 0 36 32" fill="none" xmlns="http://www.w3.org/2000/svg">
<rect width="36" height="32" rx="5" fill="#EFEDFF"/>
<path d="M17.1293 18.7038L15.4335 20.3997C15.076 20.7572 14.5077 20.7572 14.141 20.4088C14.0402 20.308 13.9393 20.2163 13.8385 20.1155C12.8943 19.1622 12.0418 18.163 11.281 17.118C10.5293 16.073 9.92433 15.028 9.48433 13.9922C9.0535 12.9472 8.8335 11.948 8.8335 10.9947C8.8335 10.3713 8.9435 9.77551 9.1635 9.22551C9.3835 8.66634 9.73183 8.15301 10.2177 7.69467C10.8043 7.11717 11.446 6.83301 12.1243 6.83301C12.381 6.83301 12.6377 6.88801 12.8668 6.99801C13.1052 7.10801 13.316 7.27301 13.481 7.51134L15.6077 10.5088C15.7727 10.738 15.8918 10.9488 15.9743 11.1505C16.0568 11.343 16.1027 11.5355 16.1027 11.7097C16.1027 11.9297 16.0385 12.1497 15.9102 12.3605C15.791 12.5713 15.6168 12.7913 15.3968 13.0113L14.7002 13.7355C14.5993 13.8363 14.5535 13.9555 14.5535 14.1022C14.5535 14.1755 14.5627 14.2397 14.581 14.313C14.6085 14.3863 14.636 14.4413 14.6543 14.4963C14.8193 14.7988 15.1035 15.193 15.5068 15.6697C15.9193 16.1463 16.3593 16.6322 16.836 17.118C16.9277 17.2097 17.0285 17.3013 17.1202 17.393C17.4868 17.7505 17.496 18.3372 17.1293 18.7038Z" fill="#5244C0"/>
<path d="M27.139 21.8026C27.139 22.0593 27.0931 22.3251 27.0015 22.5818C26.974 22.6551 26.9465 22.7285 26.9098 22.8018C26.754 23.1318 26.5523 23.4435 26.2865 23.7368C25.8373 24.2318 25.3423 24.5893 24.7831 24.8185C24.774 24.8185 24.7648 24.8276 24.7556 24.8276C24.2148 25.0476 23.6281 25.1668 22.9956 25.1668C22.0606 25.1668 21.0615 24.9468 20.0073 24.4976C18.9531 24.0485 17.899 23.4435 16.854 22.6826C16.4965 22.4168 16.139 22.1509 15.7998 21.8668L18.7973 18.8693C19.054 19.0618 19.2831 19.2085 19.4756 19.3093C19.5215 19.3276 19.5765 19.3551 19.6406 19.3826C19.714 19.4101 19.7873 19.4193 19.8698 19.4193C20.0256 19.4193 20.1448 19.3643 20.2456 19.2635L20.9423 18.576C21.1715 18.3468 21.3915 18.1726 21.6023 18.0626C21.8131 17.9343 22.024 17.8701 22.2531 17.8701C22.4273 17.8701 22.6106 17.9068 22.8123 17.9893C23.014 18.0718 23.2248 18.191 23.454 18.3468L26.4881 20.501C26.7265 20.666 26.8915 20.8584 26.9923 21.0876C27.084 21.3168 27.139 21.546 27.139 21.8026Z" fill="#5244C0"/>
</svg>
