<svg width="52" height="53" viewBox="0 0 52 53" fill="none" xmlns="http://www.w3.org/2000/svg">
<rect y="0.5" width="52" height="52" rx="12.25" fill="#EFEDFF"/>
<path d="M18.0413 28.125C16.8088 28.125 15.673 28.5963 14.8151 29.3696C14.6218 29.5388 14.4405 29.72 14.2834 29.9254C13.6068 30.7592 13.208 31.8104 13.208 32.9583C13.208 35.6287 15.383 37.7917 18.0413 37.7917C19.2013 37.7917 20.2526 37.3808 21.0863 36.7163C21.763 36.1483 22.2947 35.4112 22.5847 34.5654C22.778 34.07 22.8747 33.5262 22.8747 32.9583C22.8747 30.3 20.7118 28.125 18.0413 28.125ZM20.9413 32.0279C20.9413 32.3662 20.6755 32.62 20.3493 32.62C20.023 32.62 19.7572 32.3662 19.7572 32.0279V31.9071C19.7572 31.7742 19.6605 31.6654 19.5276 31.6654H17.1109C17.2318 31.895 17.2076 32.1729 17.0143 32.3663C16.9055 32.475 16.7605 32.5354 16.5913 32.5354C16.4463 32.5354 16.2893 32.475 16.1805 32.3663L15.3105 31.4963C15.2622 31.4479 15.2138 31.3754 15.1776 31.3029C15.1293 31.1579 15.1293 31.0008 15.1776 30.8558C15.2138 30.7954 15.2501 30.7108 15.3105 30.6625L16.1805 29.8046C16.4101 29.5629 16.7847 29.5629 17.0022 29.8046C17.1955 29.9858 17.2197 30.2758 17.0988 30.4933H19.5276C20.3009 30.4933 20.9293 31.1217 20.9293 31.9071V32.0279H20.9413ZM19.4913 36.2933C19.3343 36.2933 19.1772 36.245 19.0684 36.1242C18.8751 35.9429 18.8509 35.6529 18.9718 35.4354H16.543C15.7697 35.4354 15.1413 34.8071 15.1413 34.0217V33.9008C15.1413 33.5625 15.4072 33.3088 15.7334 33.3088C16.0597 33.3088 16.3255 33.5625 16.3255 33.9008V34.0217C16.3255 34.1546 16.4222 34.2633 16.5551 34.2633H18.9838C18.863 34.0337 18.8872 33.7558 19.0805 33.5625C19.3101 33.3329 19.6847 33.3329 19.9022 33.5625L20.7722 34.4325C20.8205 34.4808 20.8688 34.5533 20.9051 34.6258C20.9534 34.7708 20.9534 34.9279 20.9051 35.0729C20.8688 35.1333 20.8205 35.2058 20.7722 35.2542L19.9022 36.1121C19.7934 36.2329 19.6363 36.2933 19.4913 36.2933Z" fill="#5244C0"/>
<path d="M29.9434 14.7724V19.3641H28.1309V14.7724C28.1309 14.4461 27.8409 14.2891 27.6476 14.2891C27.5872 14.2891 27.5268 14.3011 27.4663 14.3253L17.8843 17.9382C17.2438 18.1799 16.833 18.7841 16.833 19.4728V20.2824C15.7334 21.1041 15.0205 22.4211 15.0205 23.9074V19.4728C15.0205 18.0349 15.9026 16.7541 17.2438 16.2466L26.838 12.6216C27.1038 12.5249 27.3818 12.4766 27.6476 12.4766C28.8559 12.4766 29.9434 13.4553 29.9434 14.7724Z" fill="#5244C0"/>
<path d="M37.9792 27.5202V28.7285C37.9792 29.0548 37.7254 29.3206 37.3871 29.3327H35.6229C34.9825 29.3327 34.4025 28.8614 34.3542 28.2331C34.3179 27.8585 34.4629 27.5081 34.7046 27.2664C34.9221 27.0368 35.2242 26.916 35.5504 26.916H37.375C37.7254 26.9281 37.9792 27.1939 37.9792 27.5202Z" fill="#5244C0"/>
<path d="M35.538 25.6486H36.7705C37.4351 25.6486 37.9788 25.1048 37.9788 24.4402V23.9086C37.9788 21.4073 35.9368 19.3652 33.4355 19.3652H19.5638C18.5368 19.3652 17.5943 19.7036 16.833 20.2836C15.7334 21.1052 15.0205 22.4223 15.0205 23.9086V26.0594C15.0205 26.5186 15.5038 26.8086 15.9388 26.6636C16.6155 26.434 17.3284 26.3132 18.0413 26.3132C21.7026 26.3132 24.6872 29.2977 24.6872 32.959C24.6872 33.829 24.4576 34.7836 24.0951 35.6294C23.9018 36.0644 24.2038 36.584 24.6751 36.584H33.4355C35.9368 36.584 37.9788 34.5419 37.9788 32.0407V31.8111C37.9788 31.1465 37.4351 30.6027 36.7705 30.6027H35.7193C34.5593 30.6027 33.4476 29.8898 33.1455 28.7661C32.9038 27.8477 33.1938 26.9536 33.798 26.3736C34.2451 25.9144 34.8613 25.6486 35.538 25.6486ZM28.9163 25.4069H22.8747C22.3793 25.4069 21.9684 24.9961 21.9684 24.5007C21.9684 24.0052 22.3793 23.5944 22.8747 23.5944H28.9163C29.4118 23.5944 29.8226 24.0052 29.8226 24.5007C29.8226 24.9961 29.4118 25.4069 28.9163 25.4069Z" fill="#5244C0"/>
</svg>
