<svg width="52" height="53" viewBox="0 0 52 53" fill="none" xmlns="http://www.w3.org/2000/svg">
<rect y="0.5" width="52" height="52" rx="12.25" fill="#EFEDFF"/>
<path d="M26.4998 13.416C19.8419 13.416 14.4165 18.8414 14.4165 25.4993C14.4165 32.1573 19.8419 37.5827 26.4998 37.5827C33.1578 37.5827 38.5832 32.1573 38.5832 25.4993C38.5832 18.8414 33.1578 13.416 26.4998 13.416ZM31.7561 29.8131C31.5869 30.1031 31.2848 30.2602 30.9707 30.2602C30.8136 30.2602 30.6565 30.2239 30.5115 30.1273L26.7657 27.8918C25.8353 27.336 25.1465 26.1156 25.1465 25.0402V20.086C25.1465 19.5906 25.5573 19.1798 26.0528 19.1798C26.5482 19.1798 26.959 19.5906 26.959 20.086V25.0402C26.959 25.4752 27.3215 26.1156 27.6961 26.3331L31.4419 28.5685C31.8769 28.8223 32.0219 29.3781 31.7561 29.8131Z" fill="#5244C0"/>
</svg>
