<svg width="71" height="94" viewBox="0 0 71 94" fill="none" xmlns="http://www.w3.org/2000/svg">
<path d="M37.3491 -0.000172318C55.3707 -0.000267421 70.0029 16.9365 70.003 37.7968C70.003 58.657 55.371 75.594 37.3494 75.5941C19.3278 75.5942 4.69554 58.6573 4.69546 37.7971C4.69538 16.9369 19.3275 -7.72158e-05 37.3491 -0.000172318Z" fill="#E9E7EB"/>
<g opacity="0.51">
<path d="M52.2167 40.8937L38.1016 93.2194L5.49038 79.9908L19.6055 27.665L52.2167 40.8937Z" fill="#CCCCCC"/>
</g>
<path d="M51.7697 38.6561L36.4736 92.1753L5.04315 80.1402L20.3382 26.621L51.7697 38.6561Z" stroke="#BCBCBC"/>
<path d="M51.7674 39.8497L37.6524 92.1755L5.04116 78.9468L19.1562 26.6211L51.7674 39.8497Z" fill="white"/>
<path d="M48.3629 7.34857C54.8001 7.34854 60.0266 13.3982 60.0266 20.8494C60.0267 28.3005 54.8002 34.3503 48.363 34.3503C41.9258 34.3503 36.6993 28.3006 36.6993 20.8495C36.6992 13.3984 41.9257 7.34861 48.3629 7.34857Z" fill="#CFCFCF"/>
<path d="M47.5015 6.04584C53.888 6.0458 59.0734 12.0479 59.0734 19.4403C59.0735 26.8328 53.8881 32.8349 47.5016 32.835C41.1151 32.835 35.9298 26.8329 35.9297 19.4405C35.9297 12.048 41.115 6.04587 47.5015 6.04584Z" fill="white"/>
<path d="M47.5015 6.04584C53.888 6.0458 59.0734 12.0479 59.0734 19.4403C59.0735 26.8328 53.8881 32.8349 47.5016 32.835C41.1151 32.835 35.9298 26.8329 35.9297 19.4405C35.9297 12.048 41.115 6.04587 47.5015 6.04584Z" stroke="#EEEEEE" stroke-width="1.26"/>
<path d="M64.0637 19.6845C64.0637 20.943 63.181 21.9648 62.0938 21.9648L59.3411 21.9648C58.2538 21.9648 57.3711 20.943 57.3711 19.6845C57.3711 18.4261 58.2538 17.4043 59.341 17.4043L62.0938 17.4043C63.181 17.4043 64.0637 18.426 64.0637 19.6845Z" fill="white"/>
<path d="M47.4968 8.17085C52.8695 8.17082 57.2318 13.2202 57.2319 19.4392C57.2319 25.6583 52.8696 30.7077 47.4969 30.7077C42.1241 30.7078 37.7618 25.6584 37.7618 19.4393C37.7617 13.2203 42.124 8.17088 47.4968 8.17085Z" fill="#0157FF"/>
<path d="M54.0397 32.8291C54.7493 32.8291 55.3254 33.496 55.3254 34.3174C55.3254 35.1388 54.7493 35.8057 54.0397 35.8057C53.3301 35.8057 52.7539 35.1388 52.7539 34.3174C52.7539 33.496 53.3301 32.8291 54.0397 32.8291Z" fill="#0157FF"/>
<path d="M54.0397 32.8291C54.7493 32.8291 55.3254 33.496 55.3254 34.3174C55.3254 35.1388 54.7493 35.8057 54.0397 35.8057C53.3301 35.8057 52.7539 35.1388 52.7539 34.3174C52.7539 33.496 53.3301 32.8291 54.0397 32.8291Z" fill="#0157FF"/>
<path d="M55.1644 37.1211C55.5699 37.1211 55.8991 37.5022 55.8991 37.9715C55.8991 38.4409 55.5699 38.822 55.1644 38.822C54.7589 38.822 54.4297 38.4409 54.4297 37.9715C54.4297 37.5022 54.7589 37.1211 55.1644 37.1211Z" fill="#0157FF"/>
<path d="M55.1644 37.1211C55.5699 37.1211 55.8991 37.5022 55.8991 37.9715C55.8991 38.4409 55.5699 38.822 55.1644 38.822C54.7589 38.822 54.4297 38.4409 54.4297 37.9715C54.4297 37.5022 54.7589 37.1211 55.1644 37.1211Z" fill="#0157FF"/>
<path d="M39.1164 20.9456C39.1164 14.7471 43.4575 9.72211 48.8126 9.72208C51.1311 9.72207 53.2587 10.6652 54.9271 12.2365C53.1491 9.70731 50.4397 8.09075 47.4032 8.09077C42.0481 8.0908 37.7071 13.1158 37.7071 19.3143C37.7071 22.8291 39.1037 25.9653 41.2887 28.0232C39.9313 26.0921 39.1164 23.6294 39.1164 20.9456Z" fill="#003BAE"/>
<path d="M15.9915 38.067L1.92257 65.3031L0.0521716 63.9958L14.1211 36.7598L15.9915 38.067Z" fill="#FBB550"/>
<path d="M16.9799 33.8847L14.2829 36.7248L16.086 38.0012L16.9799 33.8847Z" fill="#FFE7C6"/>
<path d="M16.9428 33.9625L15.9995 34.9123L16.6625 35.3818L16.9428 33.9625Z" fill="#484848"/>
</svg>
