<svg width="15" height="13" viewBox="0 0 15 13" fill="none" xmlns="http://www.w3.org/2000/svg">
<g clip-path="url(#clip0_1718_1429)">
<path d="M10.6481 0C10.3642 0 10.1348 0.222321 10.1348 0.497259C10.1348 0.772197 10.3642 0.994435 10.6481 0.994435H11.9474L10.9021 2.00728C10.2704 1.54464 9.50468 1.29426 8.69941 1.29426C8.03144 1.29426 7.39101 1.46623 6.8317 1.78836C6.27254 1.46623 5.63236 1.29426 4.96523 1.29426C3.98588 1.29426 3.06554 1.66366 2.37365 2.33434C1.68166 3.00462 1.2998 3.89608 1.2998 4.84377C1.2998 5.79192 1.68166 6.68338 2.37365 7.35404C2.94293 7.90545 3.66683 8.25273 4.45096 8.35854V9.14031H3.4274C3.14356 9.14031 2.91413 9.36302 2.91413 9.63748C2.91413 9.91242 3.14457 10.1347 3.4274 10.1347H4.45096V11.1262C4.45096 11.4011 4.6804 11.6234 4.96424 11.6234C5.24808 11.6234 5.47752 11.4006 5.47752 11.1262V10.1345H6.50108C6.78492 10.1345 7.01436 9.9118 7.01436 9.63734C7.01436 9.3624 6.78492 9.14016 6.50108 9.14016H5.47752V8.35873C5.95874 8.29387 6.41736 8.13795 6.83161 7.89966C7.39094 8.22147 8.03144 8.39327 8.69941 8.39327C9.67827 8.39327 10.5986 8.02379 11.2901 7.35408C11.983 6.68282 12.363 5.79144 12.363 4.84382C12.363 4.06342 12.1047 3.32196 11.6277 2.71048L12.673 1.69772V2.95696C12.673 3.2319 12.9025 3.45414 13.1863 3.45414C13.4696 3.45414 13.6996 3.2319 13.6996 2.95696V0.497342C13.6996 0.222321 13.4701 0 13.1863 0L10.6481 0ZM4.96523 2.28859C5.31462 2.28859 5.65345 2.3541 5.96693 2.47888C5.36433 3.1302 5.03403 3.96263 5.03403 4.84365C5.03403 5.72507 5.36425 6.55733 5.96652 7.20904C5.65313 7.33349 5.31445 7.39876 4.96523 7.39876C4.26042 7.39876 3.59783 7.13331 3.09935 6.65106C2.60097 6.16831 2.32634 5.5264 2.32634 4.84372C2.32634 4.16153 2.60097 3.52018 3.09935 3.03745C3.59774 2.5547 4.26044 2.28869 4.96523 2.28869V2.28859ZM8.69958 2.28859C9.40488 2.28859 10.0665 2.5546 10.5634 3.03735C11.0618 3.5201 11.3365 4.16151 11.3365 4.84363C11.3365 5.52624 11.0628 6.16813 10.5645 6.65096C10.0661 7.13322 9.40439 7.39867 8.6996 7.39867C8.3503 7.39867 8.0113 7.3334 7.69748 7.20886C8.30033 6.55682 8.62878 5.72454 8.62878 4.84368C8.62878 3.96202 8.29932 3.12992 7.69681 2.47912C8.01078 2.35426 8.34996 2.28867 8.6996 2.28867L8.69958 2.28859ZM6.83144 3.03972C7.32839 3.52222 7.60212 4.16268 7.60212 4.84373C7.60212 5.52554 7.32916 6.16662 6.83196 6.6492C6.33466 6.16662 6.0607 5.52552 6.0607 4.84373C6.0607 4.16268 6.33449 3.52222 6.83146 3.03972H6.83144Z" fill="#EFEDFF"/>
</g>
<defs>
<clipPath id="clip0_1718_1429">
<rect width="15" height="13" fill="white"/>
</clipPath>
</defs>
</svg>
