<svg width="24" height="24" viewBox="0 0 24 24" fill="none" xmlns="http://www.w3.org/2000/svg">
<path d="M17.8807 19.2969C16.1219 20.4125 14.0814 21.0033 11.9987 20.9999C6.60669 20.9999 2.12069 17.1199 1.17969 11.9999C1.60972 9.67066 2.78132 7.54284 4.51969 5.93394L1.39069 2.80794L2.80569 1.39294L22.6047 21.1929L21.1897 22.6069L17.8797 19.2969H17.8807ZM5.93369 7.34994C4.57469 8.58553 3.628 10.2087 3.22169 11.9999C3.53398 13.3664 4.16095 14.6411 5.05269 15.7225C5.94443 16.804 7.07631 17.6623 8.35824 18.2293C9.64017 18.7962 11.0367 19.056 12.4368 18.9881C13.8368 18.9201 15.2017 18.5263 16.4227 17.8379L14.3947 15.8099C13.5314 16.3538 12.5089 16.588 11.4949 16.4744C10.481 16.3607 9.53573 15.9058 8.81426 15.1844C8.09279 14.4629 7.63791 13.5177 7.52425 12.5037C7.41058 11.4897 7.64487 10.4673 8.18869 9.60394L5.93369 7.34994ZM12.9127 14.3279L9.67069 11.0859C9.49275 11.5389 9.45088 12.0339 9.55019 12.5103C9.64951 12.9867 9.8857 13.4237 10.2298 13.7678C10.5739 14.1119 11.011 14.3481 11.4873 14.4474C11.9637 14.5468 12.4588 14.5049 12.9117 14.3269L12.9127 14.3279ZM20.8057 16.5919L19.3747 15.1619C20.0432 14.2092 20.5191 13.1351 20.7757 11.9999C20.5039 10.8097 19.993 9.68709 19.2738 8.70044C18.5547 7.71379 17.6425 6.88367 16.5926 6.26055C15.5426 5.63743 14.377 5.23431 13.1664 5.07571C11.9559 4.9171 10.7257 5.00632 9.55069 5.33794L7.97269 3.75994C9.21969 3.26994 10.5787 2.99994 11.9987 2.99994C17.3907 2.99994 21.8767 6.87994 22.8177 11.9999C22.5113 13.6656 21.8225 15.2375 20.8057 16.5919ZM11.7217 7.50794C12.3582 7.46861 12.9958 7.56501 13.5922 7.79076C14.1887 8.01651 14.7303 8.36646 15.1812 8.81739C15.6322 9.26833 15.9821 9.80997 16.2079 10.4064C16.4336 11.0028 16.53 11.6404 16.4907 12.2769L11.7207 7.50794H11.7217Z" fill="#09121F"/>
</svg>
