<svg width="300" height="300" viewBox="0 0 300 300" fill="none" xmlns="http://www.w3.org/2000/svg">
<path d="M144.597 263C207.978 263 259.359 212.184 259.359 149.5C259.359 86.8157 207.978 36 144.597 36C81.2156 36 29.835 86.8157 29.835 149.5C29.835 212.184 81.2156 263 144.597 263Z" fill="url(#paint0_linear_651_5461)"/>
<ellipse cx="14.4352" cy="127.382" rx="5.43521" ry="5.37545" fill="#E3E3E3"/>
<rect x="91.6318" y="94.8867" width="197.556" height="70.4335" rx="24" fill="#090F47"/>
<rect x="173.181" y="119.134" width="66.6179" height="9.23718" rx="4.61859" fill="#F9F9F9"/>
<rect x="108.86" y="132.989" width="131.274" height="9.23718" rx="4.61859" fill="white"/>
<ellipse cx="263.919" cy="130.68" rx="11.4858" ry="11.5465" fill="#D3CEF9" fill-opacity="0.5"/>
<rect x="9" y="153.773" width="197.556" height="70.4335" rx="24" fill="#D3CEF9" fill-opacity="0.5"/>
<rect x="58.3887" y="178.021" width="66.6179" height="9.23718" rx="4.61859" fill="#090F47"/>
<rect x="58.3887" y="191.877" width="131.274" height="9.23719" rx="4.61859" fill="white"/>
<ellipse cx="37.7144" cy="189.568" rx="11.4858" ry="11.5465" fill="#F9F9F9"/>
<defs>
<linearGradient id="paint0_linear_651_5461" x1="143.712" y1="-0.958387" x2="146.012" y2="397.637" gradientUnits="userSpaceOnUse">
<stop stop-color="#F2F2F2"/>
<stop offset="1" stop-color="#EFEFEF"/>
</linearGradient>
</defs>
</svg>
