<svg width="206" height="44" viewBox="0 0 206 44" fill="none" xmlns="http://www.w3.org/2000/svg">
<g clip-path="url(#clip0)">
<g clip-path="url(#clip1)">
<path d="M8.52889 19.3398L15.3627 29.0639H10.2374L5.76166 22.3346L2.94631 25.4012V29.0653H-1V12.7754H2.94631V19.9388L9.20265 12.7754H14.1568L8.52889 19.3398Z" fill="white"/>
<path d="M30.0171 26.5272H22.1245L21.0417 29.0639H16.8547L23.857 12.7754H28.2605L35.2869 29.0667H31.0759L30.0171 26.5272ZM28.6455 23.3169L26.0977 17.2316L23.4961 23.3169H28.6455Z" fill="white"/>
<path d="M53.8392 20.8972C53.8392 25.6409 50.3006 29.0711 45.2049 29.0711H37.9578V12.7995L45.2007 12.7755C50.5908 12.7516 53.8392 16.2015 53.8392 20.8972ZM41.9041 25.4253H45.2007C47.9438 25.4253 49.8448 23.6284 49.8448 20.8972C49.8448 17.9744 47.992 16.4171 45.2007 16.4171H41.9041V25.4253Z" fill="white"/>
<path d="M72.4866 20.8972C72.4866 25.6409 68.948 29.0711 63.8523 29.0711H56.6094V12.7995L63.8523 12.7755C69.2396 12.7516 72.4866 16.2015 72.4866 20.8972ZM60.5529 25.4253H63.8495C66.5926 25.4253 68.4936 23.6284 68.4936 20.8972C68.4936 17.9744 66.6408 16.4171 63.8495 16.4171H60.5529V25.4253Z" fill="white"/>
<path d="M87.5512 12.7754V16.417H78.9608V19.2201H86.1315V22.6221H78.9608V25.4251H87.5512V29.0667H75.0103V12.7754H87.5512Z" fill="white"/>
<path d="M104.394 19.0467C104.394 22.2571 102.348 25.3716 98.1658 25.3716H94.6003V29.0667H90.637V12.7754H98.1913C102.373 12.7754 104.394 15.8899 104.394 19.0467ZM94.6003 16.417V21.7596H97.7284C99.3166 21.7596 100.399 20.8252 100.399 19.0524C100.399 17.3034 99.3166 16.4409 97.7284 16.417H94.6003Z" fill="white"/>
<path d="M112.146 18.3927V12.1777H113.289V14.6905L115.599 12.1777H117.014L114.707 14.6454L117.069 18.3927H115.669L113.886 15.5234L113.289 16.1717V18.3927H112.146Z" fill="white"/>
<path d="M119.05 18.4998C118.727 18.5118 118.407 18.4496 118.113 18.318C117.888 18.2126 117.699 18.0441 117.569 17.8332C117.45 17.6317 117.388 17.4018 117.391 17.168C117.386 16.9761 117.427 16.7858 117.511 16.6128C117.595 16.4398 117.718 16.2891 117.872 16.1731C118.194 15.9185 118.675 15.7912 119.314 15.7912H120.447V15.6855C120.457 15.5622 120.439 15.4382 120.395 15.3227C120.35 15.2073 120.28 15.1034 120.189 15.0189C120.007 14.8736 119.779 14.7981 119.546 14.8061C119.333 14.8011 119.122 14.8579 118.941 14.9695C118.853 15.0216 118.778 15.0919 118.72 15.1756C118.663 15.2593 118.624 15.3544 118.607 15.4543H117.491C117.515 15.1501 117.628 14.8595 117.817 14.6186C118.01 14.379 118.26 14.1915 118.544 14.0732C118.858 13.9437 119.195 13.879 119.535 13.883C120.166 13.883 120.663 14.0399 121.024 14.3537C121.386 14.6675 121.571 15.1114 121.579 15.6855V18.3927H120.607L120.499 17.6881C120.368 17.9257 120.18 18.1272 119.951 18.2743C119.679 18.4356 119.366 18.514 119.05 18.4998ZM119.307 17.612C119.45 17.6196 119.594 17.5948 119.726 17.5394C119.858 17.484 119.976 17.3994 120.07 17.2921C120.257 17.066 120.376 16.7919 120.413 16.5014H119.442C119.139 16.5014 118.921 16.5564 118.791 16.6663C118.728 16.7143 118.678 16.7761 118.644 16.8468C118.61 16.9175 118.593 16.9952 118.594 17.0736C118.59 17.1514 118.606 17.2289 118.641 17.2988C118.675 17.3688 118.727 17.429 118.791 17.4739C118.946 17.5749 119.129 17.6234 119.314 17.612H119.307Z" fill="white"/>
<path d="M124.703 18.4996C124.31 18.5071 123.923 18.4035 123.588 18.2009C123.26 17.9992 122.993 17.7147 122.812 17.3764C122.619 17.0095 122.521 16.5999 122.529 16.1856C122.521 15.773 122.618 15.3652 122.812 15.0004C122.993 14.6645 123.261 14.3828 123.588 14.1844C123.924 13.9833 124.311 13.8803 124.703 13.887C125.005 13.8802 125.304 13.9439 125.576 14.0731C125.821 14.1925 126.03 14.3732 126.183 14.5973V12H127.324V18.3925H126.308L126.183 17.7626C126.029 17.9677 125.837 18.1422 125.617 18.277C125.34 18.436 125.023 18.5132 124.703 18.4996ZM124.944 17.5047C125.112 17.5103 125.279 17.4804 125.435 17.417C125.591 17.3536 125.732 17.2582 125.848 17.1368C125.966 17.01 126.058 16.8612 126.119 16.699C126.179 16.5367 126.207 16.3642 126.2 16.1912C126.208 16.0176 126.18 15.8442 126.12 15.6812C126.059 15.5181 125.967 15.3686 125.848 15.2414C125.607 15.006 125.283 14.8741 124.946 14.8741C124.608 14.8741 124.284 15.006 124.043 15.2414C123.924 15.3662 123.83 15.5138 123.769 15.6753C123.708 15.8368 123.68 16.0089 123.687 16.1814C123.68 16.3553 123.709 16.5287 123.77 16.6917C123.831 16.8547 123.924 17.0041 124.043 17.1312C124.158 17.2534 124.298 17.3498 124.453 17.4142C124.608 17.4786 124.775 17.5094 124.944 17.5047Z" fill="white"/>
<path d="M130.142 18.4994C129.589 18.4994 129.164 18.3275 128.869 17.9836C128.573 17.6397 128.423 17.1366 128.418 16.4743V13.9883H129.551V16.3686C129.531 16.6759 129.612 16.9813 129.783 17.2381C129.938 17.4392 130.181 17.5397 130.513 17.5397C130.66 17.5434 130.806 17.5152 130.941 17.457C131.075 17.3988 131.196 17.3121 131.293 17.2029C131.512 16.9393 131.622 16.6028 131.602 16.2615V13.9883H132.743V18.3923H131.735L131.646 17.6468C131.511 17.9058 131.306 18.1214 131.053 18.2683C130.776 18.4274 130.461 18.5073 130.142 18.4994Z" fill="white"/>
<path d="M133.905 18.3927V13.9886H134.913L135.002 14.7341C135.137 14.4769 135.341 14.2622 135.592 14.1141C135.87 13.9557 136.186 13.8763 136.506 13.8843C137.053 13.8843 137.477 14.0558 137.78 14.3987C138.083 14.7417 138.235 15.2448 138.235 15.9081V18.3927H137.094V16.0138C137.115 15.7065 137.035 15.4006 136.866 15.1428C136.779 15.0386 136.668 14.9568 136.542 14.9043C136.416 14.8518 136.28 14.8302 136.144 14.8413C135.996 14.8369 135.848 14.8648 135.712 14.923C135.575 14.9812 135.453 15.0682 135.354 15.1781C135.136 15.4419 135.026 15.7783 135.047 16.1195V18.3927H133.905Z" fill="white"/>
<path d="M140.852 18.4999C140.53 18.5117 140.209 18.4495 139.915 18.3181C139.69 18.2128 139.501 18.0442 139.371 17.8333C139.252 17.6318 139.191 17.4019 139.193 17.1681C139.189 16.9763 139.23 16.7861 139.314 16.6131C139.397 16.4402 139.521 16.2895 139.674 16.1732C139.995 15.9186 140.477 15.7913 141.119 15.7913H142.245V15.6856C142.255 15.5622 142.237 15.438 142.192 15.3225C142.148 15.207 142.077 15.1032 141.986 15.019C141.804 14.8737 141.576 14.7982 141.343 14.8062C141.13 14.8017 140.919 14.8584 140.737 14.9697C140.652 15.0235 140.58 15.0945 140.525 15.178C140.469 15.2615 140.432 15.3557 140.416 15.4545H139.301C139.324 15.15 139.437 14.8593 139.626 14.6187C139.818 14.3788 140.068 14.1912 140.352 14.0733C140.669 13.9427 141.009 13.878 141.352 13.8831C141.981 13.8831 142.477 14.04 142.841 14.3538C143.204 14.6676 143.385 15.1115 143.384 15.6856V18.3928H142.412L142.306 17.6882C142.174 17.9256 141.985 18.127 141.756 18.2744C141.484 18.4363 141.169 18.5147 140.852 18.4999ZM141.111 17.6121C141.254 17.6196 141.397 17.5948 141.529 17.5393C141.661 17.4839 141.778 17.3994 141.872 17.2922C142.06 17.0663 142.179 16.7922 142.216 16.5016H141.244C140.941 16.5016 140.723 16.5565 140.593 16.6664C140.532 16.7154 140.484 16.7776 140.451 16.8483C140.418 16.9189 140.403 16.996 140.405 17.0737C140.401 17.1514 140.417 17.2286 140.451 17.2985C140.485 17.3684 140.536 17.4287 140.6 17.474C140.752 17.5726 140.931 17.6209 141.112 17.6121H141.111Z" fill="white"/>
<path d="M146.621 18.3927V12.1777H148.756C149.486 12.1777 150.088 12.3064 150.561 12.5639C151.018 12.8054 151.386 13.1848 151.614 13.6476C151.852 14.1602 151.969 14.7204 151.956 15.2852C151.969 15.85 151.852 16.4102 151.614 16.9228C151.386 17.3857 151.018 17.765 150.561 18.0065C150.089 18.2649 149.487 18.3936 148.756 18.3927H146.621ZM147.762 17.4161H148.699C149.127 17.4365 149.553 17.3492 149.938 17.1624C150.234 17.0036 150.464 16.7462 150.589 16.4352C150.729 16.0683 150.796 15.6776 150.786 15.2852C150.795 14.8942 150.728 14.5051 150.589 14.1395C150.464 13.8262 150.234 13.5657 149.938 13.4024C149.553 13.2136 149.127 13.1253 148.699 13.1459H147.765L147.762 17.4161Z" fill="white"/>
<path d="M153.55 13.3052C153.361 13.3124 153.177 13.2456 153.038 13.1191C152.972 13.0597 152.92 12.9868 152.886 12.9056C152.851 12.8244 152.834 12.7367 152.837 12.6484C152.834 12.5608 152.851 12.4737 152.885 12.3931C152.92 12.3125 152.972 12.2405 153.038 12.182C153.182 12.0643 153.363 12 153.55 12C153.737 12 153.918 12.0643 154.063 12.182C154.128 12.2405 154.18 12.3125 154.215 12.3931C154.25 12.4737 154.266 12.5608 154.264 12.6484C154.266 12.7367 154.249 12.8244 154.215 12.9056C154.18 12.9868 154.128 13.0597 154.063 13.1191C153.923 13.2456 153.739 13.3124 153.55 13.3052ZM152.984 18.3927V13.9887H154.125V18.3927H152.984Z" fill="white"/>
<path d="M157.188 17.0734C156.986 17.0749 156.786 17.0507 156.59 17.0015L156.258 17.3355C156.387 17.4013 156.525 17.4488 156.668 17.4764C156.841 17.5121 157.12 17.5474 157.506 17.5821C158.095 17.6357 158.523 17.7766 158.79 18.0049C158.924 18.1194 159.03 18.2629 159.099 18.4243C159.169 18.5858 159.201 18.7609 159.192 18.9364C159.191 19.1985 159.117 19.4552 158.978 19.6777C158.817 19.9247 158.588 20.1204 158.319 20.2414C157.959 20.3992 157.569 20.4739 157.176 20.4599C156.547 20.4599 156.039 20.3429 155.652 20.109C155.467 20.0035 155.316 19.8495 155.213 19.6638C155.111 19.4781 155.062 19.2679 155.072 19.0562C155.072 18.6598 155.265 18.3164 155.652 18.026C155.544 17.9798 155.441 17.9237 155.343 17.8583C155.262 17.8029 155.186 17.7402 155.117 17.6709V17.4609L155.893 16.6435C155.725 16.5003 155.591 16.3216 155.502 16.1204C155.413 15.9193 155.369 15.7008 155.376 15.4809C155.371 15.195 155.447 14.9137 155.596 14.6688C155.744 14.4239 155.958 14.2253 156.214 14.0955C156.515 13.9458 156.848 13.8727 157.185 13.8827C157.421 13.8806 157.656 13.9163 157.881 13.9884H159.557V14.6776L158.8 14.7297C158.92 14.9603 158.981 15.2169 158.978 15.4766C158.981 15.7603 158.907 16.0394 158.763 16.2842C158.617 16.5314 158.402 16.7315 158.144 16.8606C157.848 17.0083 157.519 17.0813 157.188 17.0734ZM156.116 18.9336C156.114 19.0368 156.142 19.1385 156.196 19.2261C156.251 19.3137 156.331 19.3835 156.425 19.4269C156.658 19.5433 156.917 19.5999 157.178 19.5918C157.421 19.6028 157.663 19.5426 157.873 19.4184C157.955 19.3714 158.023 19.3034 158.071 19.2215C158.118 19.1395 158.142 19.0465 158.142 18.9519C158.143 18.8767 158.128 18.802 158.098 18.7329C158.068 18.6639 158.024 18.6021 157.968 18.5517C157.851 18.4465 157.621 18.3817 157.275 18.3572C157.032 18.3389 156.807 18.3121 156.599 18.2769C156.452 18.3496 156.325 18.4564 156.228 18.5884C156.157 18.6898 156.118 18.81 156.116 18.9336ZM157.186 16.2081C157.394 16.2161 157.599 16.1501 157.762 16.022C157.839 15.9567 157.899 15.8746 157.938 15.7822C157.978 15.6897 157.995 15.5895 157.989 15.4893C157.995 15.3892 157.978 15.2889 157.938 15.1965C157.899 15.1041 157.839 15.022 157.762 14.9566C157.593 14.8357 157.389 14.7706 157.181 14.7706C156.972 14.7706 156.768 14.8357 156.599 14.9566C156.523 15.0226 156.464 15.1049 156.425 15.1972C156.386 15.2895 156.369 15.3894 156.375 15.4893C156.369 15.5892 156.386 15.6891 156.425 15.7815C156.464 15.8738 156.523 15.9561 156.599 16.022C156.766 16.1526 156.975 16.2186 157.188 16.2081H157.186Z" fill="white"/>
<path d="M161.005 13.3049C160.816 13.3119 160.632 13.2452 160.491 13.1189C160.426 13.0591 160.375 12.9862 160.34 12.905C160.306 12.8238 160.289 12.7363 160.292 12.6482C160.289 12.5607 160.306 12.4737 160.34 12.3931C160.375 12.3126 160.426 12.2405 160.491 12.1817C160.636 12.0642 160.818 12 161.004 12C161.191 12 161.373 12.0642 161.518 12.1817C161.583 12.2404 161.635 12.3125 161.669 12.393C161.704 12.4735 161.721 12.5606 161.719 12.6482C161.721 12.7364 161.704 12.824 161.669 12.9051C161.634 12.9863 161.583 13.0592 161.518 13.1189C161.378 13.2451 161.194 13.3119 161.005 13.3049ZM160.439 18.3925V13.9884H161.581V18.3925H160.439Z" fill="white"/>
<path d="M164.741 18.3926C164.341 18.4125 163.947 18.2934 163.627 18.0558C163.344 17.8303 163.202 17.4315 163.202 16.8565V14.9385H162.443V13.9886H163.202L163.335 12.8076H164.343V13.9886H165.538V14.9385H164.343V16.865C164.334 16.944 164.342 17.0241 164.366 17.0999C164.391 17.1757 164.431 17.2455 164.484 17.3046C164.625 17.3985 164.793 17.4409 164.961 17.4244H165.515V18.3926H164.741Z" fill="white"/>
<path d="M168.05 18.4998C167.728 18.5118 167.407 18.4496 167.113 18.318C166.888 18.2126 166.699 18.0441 166.569 17.8332C166.45 17.6317 166.389 17.4018 166.391 17.168C166.386 16.9761 166.428 16.7858 166.511 16.6128C166.595 16.4398 166.719 16.2891 166.872 16.1731C167.193 15.9185 167.675 15.7912 168.317 15.7912H169.44V15.6855C169.451 15.5622 169.433 15.4381 169.388 15.3226C169.344 15.2071 169.273 15.1032 169.182 15.0189C169.001 14.8736 168.773 14.7981 168.54 14.8061C168.326 14.8013 168.116 14.8581 167.934 14.9695C167.849 15.023 167.776 15.0939 167.721 15.1775C167.665 15.261 167.628 15.3554 167.613 15.4543H166.497C166.521 15.1501 166.634 14.8595 166.823 14.6186C167.015 14.379 167.266 14.1915 167.55 14.0732C167.864 13.9437 168.201 13.879 168.541 13.883C169.172 13.883 169.673 14.0394 170.032 14.3537C170.39 14.668 170.575 15.1105 170.575 15.6855V18.3927H169.603L169.497 17.6881C169.365 17.9255 169.176 18.1269 168.947 18.2743C168.677 18.4348 168.365 18.5132 168.05 18.4998ZM168.308 17.612C168.451 17.6196 168.594 17.5948 168.726 17.5394C168.858 17.484 168.976 17.3994 169.07 17.2921C169.258 17.0662 169.377 16.792 169.414 16.5014H168.442C168.139 16.5014 167.921 16.5564 167.791 16.6663C167.729 16.7139 167.679 16.775 167.645 16.8449C167.611 16.9148 167.594 16.9917 167.594 17.0694C167.591 17.1472 167.607 17.2246 167.641 17.2946C167.675 17.3645 167.727 17.4247 167.791 17.4696C167.943 17.5707 168.124 17.6206 168.308 17.612Z" fill="white"/>
<path d="M171.669 18.3925V12H172.819V18.3925H171.669Z" fill="white"/>
<path d="M112.146 29.0526V22.832H116.223V23.7467H113.289V25.4519H115.954V26.3397H113.289V28.1324H116.223V29.0526H112.146Z" fill="white"/>
<path d="M117.275 29.0526V24.643H118.282L118.372 25.3885C118.507 25.1299 118.712 24.9145 118.965 24.767C119.244 24.6101 119.56 24.5326 119.881 24.5429C120.429 24.5429 120.853 24.7144 121.154 25.0573C121.455 25.4002 121.607 25.9033 121.61 26.5666V29.0526H120.468V26.6681C120.488 26.3603 120.407 26.0544 120.236 25.7972C120.149 25.6929 120.037 25.6111 119.912 25.5586C119.786 25.5061 119.65 25.4845 119.514 25.4956C119.366 25.4911 119.218 25.5189 119.082 25.5771C118.946 25.6353 118.824 25.7224 118.726 25.8324C118.507 26.0961 118.397 26.4325 118.417 26.7738V29.0526H117.275Z" fill="white"/>
<path d="M124.666 29.0526C124.267 29.0724 123.873 28.9533 123.552 28.7157C123.269 28.4902 123.128 28.0914 123.128 27.5164V25.5928H122.369V24.6429H123.136L123.269 23.4619H124.268V24.6429H125.464V25.5928H124.268V27.5192C124.26 27.5983 124.268 27.6784 124.292 27.7542C124.316 27.83 124.357 27.8998 124.41 27.9589C124.55 28.0528 124.719 28.0952 124.887 28.0787H125.44V29.0526H124.666Z" fill="white"/>
<path d="M128.484 29.1542C128.07 29.1627 127.662 29.0656 127.297 28.8724C126.956 28.6879 126.675 28.4108 126.486 28.0733C126.285 27.7096 126.183 27.2993 126.192 26.8839C126.182 26.4612 126.279 26.0428 126.475 25.6677C126.659 25.3212 126.937 25.0335 127.278 24.8376C127.648 24.6321 128.068 24.5303 128.492 24.5431C128.895 24.5337 129.294 24.631 129.647 24.8249C129.973 25.0081 130.243 25.2766 130.427 25.6014C130.616 25.9359 130.714 26.314 130.71 26.6979C130.71 26.7641 130.71 26.8317 130.71 26.9022C130.71 26.9727 130.71 27.0431 130.697 27.1249H127.324C127.328 27.2766 127.361 27.4261 127.423 27.5647C127.485 27.7033 127.574 27.8283 127.685 27.9324C127.901 28.1277 128.184 28.2326 128.475 28.2255C128.681 28.2323 128.883 28.1783 129.058 28.0705C129.212 27.9716 129.334 27.8313 129.411 27.666H130.57C130.487 27.9453 130.345 28.2041 130.155 28.4256C129.962 28.6548 129.721 28.8382 129.447 28.9626C129.144 29.096 128.815 29.1614 128.484 29.1542ZM128.492 25.4605C128.226 25.4564 127.966 25.5391 127.752 25.6959C127.526 25.8714 127.379 26.1279 127.341 26.4104H129.545C129.542 26.279 129.511 26.1498 129.456 26.0305C129.4 25.9113 129.321 25.8046 129.222 25.717C129.019 25.5441 128.759 25.4526 128.492 25.4605Z" fill="white"/>
<path d="M131.667 29.0527V24.643H132.683L132.791 25.4689C132.95 25.1795 133.187 24.9398 133.476 24.7764C133.764 24.6129 134.092 24.5321 134.423 24.543V25.7408H134.102C133.873 25.7368 133.646 25.776 133.432 25.8564C133.237 25.9329 133.075 26.0744 132.973 26.2566C132.851 26.501 132.794 26.7729 132.808 27.0458V29.0527H131.667Z" fill="white"/>
<path d="M135.198 31.0005V24.6432H136.215L136.339 25.2731C136.494 25.0676 136.686 24.8931 136.906 24.7587C137.184 24.602 137.501 24.5272 137.82 24.5431C138.212 24.5365 138.599 24.6411 138.934 24.8447C139.262 25.0465 139.529 25.3315 139.71 25.6705C139.898 26.0383 139.995 26.4452 139.995 26.8579C139.995 27.2705 139.898 27.6774 139.71 28.0452C139.529 28.3818 139.261 28.664 138.934 28.8626C138.598 29.0629 138.212 29.1659 137.82 29.1599C137.518 29.167 137.219 29.1027 136.947 28.9725C136.702 28.8535 136.493 28.6733 136.339 28.4496V31.0061L135.198 31.0005ZM137.574 28.1593C137.741 28.1642 137.907 28.1344 138.062 28.0718C138.217 28.0092 138.357 27.9152 138.474 27.7957C138.594 27.6706 138.687 27.5228 138.748 27.3611C138.809 27.1993 138.837 27.027 138.831 26.8543C138.837 26.6804 138.809 26.507 138.747 26.344C138.686 26.1809 138.593 26.0316 138.474 25.9045C138.356 25.786 138.215 25.692 138.06 25.6279C137.905 25.5637 137.739 25.5307 137.571 25.5307C137.403 25.5307 137.237 25.5637 137.082 25.6279C136.927 25.692 136.786 25.786 136.668 25.9045C136.441 26.168 136.317 26.5033 136.317 26.8501C136.317 27.1969 136.441 27.5323 136.668 27.7957C136.785 27.9164 136.926 28.0111 137.082 28.0738C137.238 28.1365 137.405 28.1656 137.574 28.1593Z" fill="white"/>
<path d="M141.012 29.0521V24.6424H142.028L142.136 25.4683C142.291 25.1891 142.517 24.955 142.791 24.789C143.086 24.6153 143.425 24.5278 143.768 24.5368V25.7346H143.447C143.219 25.7306 142.992 25.7698 142.778 25.8502C142.583 25.9263 142.42 26.0678 142.318 26.2504C142.196 26.4949 142.139 26.7669 142.154 27.0396V29.0521H141.012Z" fill="white"/>
<path d="M145.159 23.9592C144.97 23.9662 144.786 23.8995 144.645 23.7732C144.58 23.7134 144.529 23.6405 144.495 23.5593C144.46 23.4781 144.444 23.3906 144.446 23.3025C144.443 23.215 144.46 23.128 144.494 23.0474C144.529 22.9669 144.58 22.8948 144.645 22.836C144.79 22.7185 144.972 22.6543 145.159 22.6543C145.345 22.6543 145.527 22.7185 145.672 22.836C145.737 22.8945 145.789 22.9666 145.824 23.0471C145.859 23.1277 145.875 23.2149 145.873 23.3025C145.875 23.3907 145.858 23.4784 145.824 23.5597C145.789 23.6409 145.737 23.7137 145.672 23.7732C145.532 23.8994 145.348 23.9662 145.159 23.9592ZM144.593 29.0467V24.6427H145.734V29.0524L144.593 29.0467Z" fill="white"/>
<path d="M148.756 29.1542C148.401 29.161 148.049 29.0958 147.721 28.9625C147.444 28.8485 147.201 28.6667 147.013 28.434C146.835 28.2091 146.723 27.9385 146.692 27.6533H147.843C147.88 27.8294 147.981 27.9858 148.126 28.093C148.304 28.2201 148.519 28.2841 148.737 28.2748C148.932 28.2909 149.126 28.2374 149.285 28.124C149.338 28.0839 149.382 28.0326 149.412 27.9739C149.443 27.9152 149.461 27.8505 149.464 27.7843C149.47 27.7018 149.449 27.6195 149.404 27.5498C149.359 27.4802 149.292 27.427 149.214 27.3982C148.988 27.3134 148.755 27.2464 148.518 27.1981C148.328 27.1572 148.136 27.1065 147.939 27.0473C147.752 26.9922 147.571 26.9165 147.4 26.8218C147.242 26.7343 147.107 26.613 147.002 26.4666C146.897 26.307 146.844 26.119 146.851 25.9283C146.849 25.7393 146.89 25.5523 146.971 25.3815C147.052 25.2106 147.171 25.0603 147.319 24.9418C147.632 24.6759 148.071 24.543 148.634 24.543C149.158 24.543 149.576 24.6642 149.888 24.9066C150.044 25.0284 150.173 25.1799 150.268 25.3522C150.364 25.5246 150.424 25.7142 150.445 25.91H149.366C149.301 25.5844 149.053 25.421 148.626 25.421C148.451 25.4105 148.278 25.4543 148.13 25.5464C148.077 25.5793 148.034 25.625 148.004 25.6792C147.974 25.7334 147.958 25.7944 147.958 25.8564C147.958 25.9861 148.042 26.0904 148.215 26.1679C148.436 26.2577 148.664 26.327 148.897 26.375C149.207 26.4455 149.49 26.5244 149.747 26.6104C149.983 26.682 150.197 26.8136 150.367 26.9923C150.533 27.1952 150.616 27.4537 150.599 27.7153C150.607 27.9774 150.532 28.2355 150.384 28.4523C150.223 28.6807 150.001 28.8591 149.742 28.9667C149.431 29.0979 149.094 29.1618 148.756 29.1542Z" fill="white"/>
<path d="M153.755 29.1538C153.342 29.1621 152.934 29.065 152.569 28.8719C152.228 28.6875 151.947 28.4104 151.758 28.0729C151.556 27.7091 151.455 27.2988 151.464 26.8834C151.453 26.4607 151.551 26.0423 151.747 25.6672C151.93 25.3208 152.209 25.033 152.549 24.8372C152.918 24.6319 153.335 24.5292 153.757 24.5398C154.159 24.5312 154.555 24.6284 154.907 24.8217C155.234 25.0049 155.503 25.2734 155.687 25.5982C155.876 25.9327 155.974 26.3108 155.97 26.6946C155.97 26.7608 155.97 26.8285 155.97 26.8989C155.97 26.9694 155.97 27.0399 155.958 27.1216H152.596C152.599 27.2733 152.633 27.4228 152.695 27.5614C152.757 27.7 152.846 27.825 152.957 27.9291C153.173 28.1244 153.455 28.2294 153.747 28.2223C153.952 28.229 154.155 28.1751 154.33 28.0672C154.483 27.9683 154.606 27.8281 154.682 27.6628H155.842C155.758 27.942 155.617 28.2008 155.427 28.4224C155.234 28.6515 154.992 28.8349 154.719 28.9593C154.416 29.0937 154.087 29.1601 153.755 29.1538ZM153.764 25.4601C153.498 25.4563 153.238 25.5389 153.023 25.6954C152.798 25.871 152.651 26.1275 152.613 26.4099H154.817C154.813 26.2787 154.783 26.1495 154.728 26.0303C154.673 25.911 154.594 25.8043 154.496 25.7166C154.292 25.5433 154.031 25.4518 153.764 25.4601Z" fill="white"/>
<path d="M159.089 29.0523V22.8318H161.399C161.826 22.8168 162.25 22.9018 162.639 23.0798C162.946 23.2282 163.201 23.4667 163.369 23.7633C163.532 24.0633 163.615 24.4001 163.61 24.7413C163.613 25.0705 163.534 25.3953 163.378 25.6856C163.212 25.9838 162.961 26.2254 162.656 26.3789C162.265 26.5678 161.833 26.6578 161.399 26.6411H160.231V29.0523H159.089ZM160.231 25.7222H161.326C161.726 25.7222 162.013 25.6362 162.187 25.4615C162.277 25.3664 162.347 25.254 162.392 25.1311C162.438 25.0083 162.457 24.8776 162.45 24.747C162.458 24.6148 162.439 24.4824 162.393 24.3579C162.348 24.2334 162.278 24.1193 162.187 24.0226C162.013 23.8478 161.726 23.7605 161.326 23.7605H160.231V25.7222Z" fill="white"/>
<path d="M164.468 29.0525V22.6543H165.61V29.0525H164.468Z" fill="white"/>
<path d="M168.308 29.1542C167.986 29.1665 167.665 29.1037 167.372 28.971C167.146 28.867 166.957 28.6988 166.827 28.4876C166.708 28.286 166.647 28.056 166.65 27.8224C166.645 27.6305 166.687 27.4402 166.77 27.2672C166.854 27.0942 166.978 26.9435 167.131 26.8275C167.451 26.5724 167.934 26.4455 168.575 26.4455H169.705V26.3399C169.715 26.2164 169.697 26.0923 169.652 25.9768C169.608 25.8613 169.537 25.7575 169.446 25.6733C169.264 25.5281 169.037 25.4525 168.804 25.4605C168.59 25.4557 168.38 25.5125 168.197 25.6239C168.112 25.6775 168.04 25.7485 167.985 25.832C167.93 25.9156 167.893 26.0099 167.877 26.1087H166.762C166.786 25.8045 166.899 25.5139 167.087 25.273C167.279 25.0331 167.529 24.8455 167.814 24.7276C168.13 24.5971 168.47 24.5324 168.813 24.5374C169.442 24.5374 169.939 24.6938 170.302 25.0067C170.665 25.3195 170.846 25.7639 170.845 26.3399V29.0527H169.874L169.767 28.3481C169.636 28.5858 169.448 28.7873 169.219 28.9343C168.944 29.0955 168.627 29.172 168.308 29.1542ZM168.567 28.2663C168.71 28.2739 168.853 28.2491 168.985 28.1937C169.117 28.1382 169.235 28.0537 169.33 27.9464C169.516 27.7204 169.635 27.4463 169.672 27.1558H168.7C168.397 27.1558 168.18 27.2108 168.05 27.3207C167.988 27.3683 167.938 27.4294 167.904 27.4993C167.87 27.5692 167.853 27.646 167.853 27.7238C167.85 27.8016 167.866 27.879 167.9 27.949C167.934 28.0189 167.986 28.0791 168.05 28.124C168.204 28.2263 168.387 28.2762 168.572 28.2663H168.567Z" fill="white"/>
<path d="M173.837 29.0526C173.437 29.0724 173.043 28.9533 172.723 28.7157C172.439 28.4902 172.298 28.0914 172.298 27.5164V25.5928H171.545V24.6429H172.304L172.437 23.4619H173.444V24.6429H174.639V25.5928H173.444V27.5192C173.436 27.5983 173.444 27.6784 173.468 27.7542C173.492 27.83 173.533 27.8998 173.586 27.9589C173.726 28.0528 173.895 28.0952 174.063 28.0787H174.615V29.0526H173.837Z" fill="white"/>
<path d="M175.825 29.052V25.5922H175.225V24.6424H175.831V24.128C175.831 23.5953 175.966 23.2162 176.237 22.9907C176.552 22.7517 176.943 22.6323 177.338 22.6538H177.828V23.622H177.517C177.366 23.6062 177.214 23.6474 177.092 23.7376C177.046 23.7907 177.01 23.8527 176.989 23.9199C176.968 23.987 176.96 24.0579 176.968 24.128V24.6424H177.922V25.5922H176.968V29.052H175.825Z" fill="white"/>
<path d="M180.765 29.1539C180.361 29.1596 179.963 29.0584 179.612 28.8608C179.272 28.6678 178.991 28.3868 178.799 28.0476C178.602 27.6772 178.498 27.2642 178.498 26.8448C178.498 26.4254 178.602 26.0124 178.799 25.642C178.993 25.3033 179.275 25.0229 179.616 24.8302C179.968 24.6379 180.364 24.5371 180.766 24.5371C181.168 24.5371 181.563 24.6379 181.916 24.8302C182.255 25.0225 182.536 25.3031 182.727 25.642C182.923 26.0128 183.026 26.4257 183.026 26.8448C183.026 27.2639 182.923 27.6768 182.727 28.0476C182.534 28.3876 182.252 28.6687 181.91 28.8608C181.561 29.0563 181.166 29.1574 180.765 29.1539ZM180.765 28.1674C180.911 28.1684 181.055 28.1394 181.188 28.0822C181.322 28.0249 181.442 27.9407 181.541 27.8348C181.762 27.6136 181.872 27.2824 181.872 26.8483C181.872 26.4143 181.762 26.0803 181.541 25.8618C181.441 25.7568 181.322 25.6732 181.189 25.616C181.056 25.5589 180.912 25.5294 180.767 25.5294C180.622 25.5294 180.479 25.5589 180.346 25.616C180.213 25.6732 180.093 25.7568 179.994 25.8618C179.777 26.0845 179.668 26.4133 179.668 26.8483C179.668 27.2852 179.777 27.6164 179.994 27.8348C180.092 27.9407 180.211 28.025 180.344 28.0823C180.477 28.1395 180.62 28.1685 180.765 28.1674Z" fill="white"/>
<path d="M184.048 29.053V24.6433H185.064L185.17 25.4692C185.326 25.1903 185.552 24.9563 185.825 24.7899C186.121 24.6168 186.459 24.5295 186.802 24.5376V25.7355H186.482C186.254 25.7315 186.026 25.7707 185.813 25.8511C185.617 25.9268 185.455 26.0685 185.354 26.2513C185.231 26.4957 185.174 26.7676 185.188 27.0405V29.053H184.048Z" fill="white"/>
<path d="M187.578 29.0528V24.6432H188.585L188.685 25.2379C188.828 25.0237 189.022 24.8484 189.251 24.7277C189.502 24.597 189.782 24.5316 190.066 24.5375C190.75 24.5375 191.235 24.8005 191.52 25.3267C191.682 25.0826 191.905 24.8841 192.167 24.7503C192.442 24.6084 192.749 24.5372 193.06 24.5431C193.636 24.5431 194.079 24.7146 194.387 25.0575C194.696 25.4004 194.851 25.9035 194.852 26.5668V29.0528H193.711V26.6683C193.728 26.3616 193.649 26.0572 193.484 25.7974C193.406 25.6952 193.304 25.6141 193.187 25.5614C193.069 25.5087 192.94 25.4862 192.812 25.4958C192.67 25.4909 192.529 25.5187 192.4 25.5772C192.271 25.6356 192.157 25.723 192.067 25.8326C191.865 26.1033 191.764 26.4368 191.784 26.774V29.0528H190.653V26.6683C190.673 26.3618 190.595 26.0569 190.43 25.7974C190.349 25.6948 190.244 25.6135 190.125 25.5609C190.005 25.5083 189.874 25.486 189.743 25.4958C189.603 25.4919 189.463 25.5202 189.336 25.5786C189.208 25.637 189.096 25.7239 189.007 25.8326C188.805 26.1036 188.705 26.4369 188.724 26.774V29.0528H187.578Z" fill="white"/>
<path d="M107.92 12.7754V29.047" stroke="#E0E0E0" stroke-miterlimit="10"/>
</g>
</g>
<defs>
<clipPath id="clip0">
<rect width="206" height="43" fill="white" transform="translate(0 0.5)"/>
</clipPath>
<clipPath id="clip1">
<rect width="195.846" height="19" fill="white" transform="translate(-1 12)"/>
</clipPath>
</defs>
</svg>
