<svg width="13" height="12" viewBox="0 0 13 12" fill="none" xmlns="http://www.w3.org/2000/svg">
<path d="M1.99243 4.07438V8.53471C1.99243 9.40568 2.65889 9.76324 3.46851 9.33234L4.62864 8.71807C4.88041 8.58513 5.30003 8.57138 5.56168 8.69515L8.15346 9.90077C8.4151 10.02 8.83472 10.0108 9.0865 9.87785L11.2241 8.74099C11.4956 8.5943 11.7227 8.23674 11.7227 7.94336V3.48303C11.7227 2.61205 11.0562 2.25449 10.2466 2.6854L9.0865 3.29967C8.83472 3.43261 8.4151 3.44636 8.15346 3.32259L5.56168 2.12156C5.30003 2.00237 4.88041 2.01154 4.62864 2.14448L2.49104 3.28133C2.21458 3.42802 1.99243 3.78558 1.99243 4.07438Z" stroke="white" stroke-width="0.846295" stroke-linecap="round" stroke-linejoin="round"/>
<path d="M5.08765 2.34277V8.3021" stroke="white" stroke-width="0.846295" stroke-linecap="round" stroke-linejoin="round"/>
<path d="M8.6272 3.54395V9.67747" stroke="white" stroke-width="0.846295" stroke-linecap="round" stroke-linejoin="round"/>
</svg>
