<svg width="36" height="32" viewBox="0 0 36 32" fill="none" xmlns="http://www.w3.org/2000/svg">
<rect width="36" height="32" rx="5" fill="#EFEDFF"/>
<path d="M22.5835 6.83301H13.4168C10.8868 6.83301 8.8335 8.87717 8.8335 11.398V16.8797V17.7963C8.8335 20.3172 10.8868 22.3613 13.4168 22.3613H14.7918C15.0393 22.3613 15.3693 22.5263 15.5252 22.728L16.9002 24.5522C17.5052 25.3588 18.4952 25.3588 19.1002 24.5522L20.4752 22.728C20.6493 22.4988 20.9243 22.3613 21.2085 22.3613H22.5835C25.1135 22.3613 27.1668 20.3172 27.1668 17.7963V11.398C27.1668 8.87717 25.1135 6.83301 22.5835 6.83301ZM14.3335 15.9997C13.8202 15.9997 13.4168 15.5872 13.4168 15.083C13.4168 14.5788 13.8293 14.1663 14.3335 14.1663C14.8377 14.1663 15.2502 14.5788 15.2502 15.083C15.2502 15.5872 14.8468 15.9997 14.3335 15.9997ZM18.0002 15.9997C17.4868 15.9997 17.0835 15.5872 17.0835 15.083C17.0835 14.5788 17.496 14.1663 18.0002 14.1663C18.5043 14.1663 18.9168 14.5788 18.9168 15.083C18.9168 15.5872 18.5135 15.9997 18.0002 15.9997ZM21.6668 15.9997C21.1535 15.9997 20.7502 15.5872 20.7502 15.083C20.7502 14.5788 21.1627 14.1663 21.6668 14.1663C22.171 14.1663 22.5835 14.5788 22.5835 15.083C22.5835 15.5872 22.1802 15.9997 21.6668 15.9997Z" fill="#5244C0"/>
</svg>
