<svg width="12" height="15" viewBox="0 0 12 15" fill="none" xmlns="http://www.w3.org/2000/svg">
<path d="M11.7465 4.79967C11.0532 1.71301 8.35983 0.333008 5.99983 0.333008C5.99983 0.333008 5.99983 0.333008 5.99317 0.333008C3.63983 0.333008 0.953167 1.71301 0.253167 4.79301C-0.5335 8.23301 1.57317 11.1463 3.47983 12.9863C4.1865 13.6663 5.09317 14.0063 5.99983 14.0063C6.9065 14.0063 7.81317 13.6663 8.51317 12.9863C10.4198 11.1463 12.5265 8.23967 11.7465 4.79967ZM8.1865 5.35301L5.51983 8.01967C5.41983 8.11967 5.29317 8.16634 5.1665 8.16634C5.03983 8.16634 4.91317 8.11967 4.81317 8.01967L3.81317 7.01967C3.61983 6.82634 3.61983 6.50634 3.81317 6.31301C4.0065 6.11967 4.3265 6.11967 4.51983 6.31301L5.1665 6.95967L7.47983 4.64634C7.67317 4.45301 7.99317 4.45301 8.1865 4.64634C8.37983 4.83967 8.37983 5.15967 8.1865 5.35301Z" fill="#090F47" fill-opacity="0.22"/>
</svg>
