<svg width="52" height="53" viewBox="0 0 52 53" fill="none" xmlns="http://www.w3.org/2000/svg">
<rect y="0.5" width="52" height="52" rx="12.25" fill="#EFEDFF"/>
<path fill-rule="evenodd" clip-rule="evenodd" d="M32.2342 13.1183C32.2342 12.3943 31.6466 11.8066 30.9226 11.8066H20.4288C19.7048 11.8066 19.1172 12.3943 19.1172 13.1183V23.6121C19.1172 24.3361 19.7048 24.9237 20.4288 24.9237H30.9226C31.6466 24.9237 32.2342 24.3361 32.2342 23.6121V13.1183ZM22.0687 15.7417V17.0534C22.0687 17.5964 22.5095 18.0372 23.0525 18.0372H28.2993C28.8423 18.0372 29.283 17.5964 29.283 17.0534V15.7417C29.283 15.1987 28.8423 14.758 28.2993 14.758C27.7562 14.758 27.3155 15.1987 27.3155 15.7417V16.0696H24.0363V15.7417C24.0363 15.1987 23.5956 14.758 23.0525 14.758C22.5095 14.758 22.0687 15.1987 22.0687 15.7417Z" fill="#5244C0"/>
<path fill-rule="evenodd" clip-rule="evenodd" d="M25.6757 26.2355C25.6757 25.5115 25.088 24.9238 24.364 24.9238H13.8702C13.1462 24.9238 12.5586 25.5115 12.5586 26.2355V36.7293C12.5586 37.4533 13.1462 38.0409 13.8702 38.0409H24.364C25.088 38.0409 25.6757 37.4533 25.6757 36.7293V26.2355ZM15.5101 28.8589V30.1706C15.5101 30.7136 15.9509 31.1543 16.4939 31.1543H21.7407C22.2837 31.1543 22.7244 30.7136 22.7244 30.1706V28.8589C22.7244 28.3159 22.2837 27.8752 21.7407 27.8752C21.1976 27.8752 20.7569 28.3159 20.7569 28.8589V29.1868H17.4777V28.8589C17.4777 28.3159 17.037 27.8752 16.4939 27.8752C15.9509 27.8752 15.5101 28.3159 15.5101 28.8589Z" fill="#5244C0"/>
<path fill-rule="evenodd" clip-rule="evenodd" d="M38.7928 26.2355C38.7928 25.5115 38.2052 24.9238 37.4812 24.9238H26.9874C26.2634 24.9238 25.6758 25.5115 25.6758 26.2355V36.7293C25.6758 37.4533 26.2634 38.0409 26.9874 38.0409H37.4812C38.2052 38.0409 38.7928 37.4533 38.7928 36.7293V26.2355ZM28.6273 28.8589V30.1706C28.6273 30.7136 29.0681 31.1543 29.6111 31.1543H34.8578C35.4009 31.1543 35.8416 30.7136 35.8416 30.1706V28.8589C35.8416 28.3159 35.4009 27.8752 34.8578 27.8752C34.3148 27.8752 33.8741 28.3159 33.8741 28.8589V29.1868H30.5949V28.8589C30.5949 28.3159 30.1542 27.8752 29.6111 27.8752C29.0681 27.8752 28.6273 28.3159 28.6273 28.8589Z" fill="#5244C0"/>
</svg>
