<svg width="25" height="24" viewBox="0 0 25 24" fill="none" xmlns="http://www.w3.org/2000/svg">
<path d="M9.40137 22H15.4014C20.4014 22 22.4014 20 22.4014 15V9C22.4014 4 20.4014 2 15.4014 2H9.40137C4.40137 2 2.40137 4 2.40137 9V15C2.40137 20 4.40137 22 9.40137 22Z" stroke="#8487A3" stroke-width="1.5" stroke-linecap="round" stroke-linejoin="round"/>
<path d="M15.9712 18.4996V14.5996" stroke="#8487A3" stroke-width="1.5" stroke-miterlimit="10" stroke-linecap="round" stroke-linejoin="round"/>
<path d="M15.9712 7.45V5.5" stroke="#8487A3" stroke-width="1.5" stroke-miterlimit="10" stroke-linecap="round" stroke-linejoin="round"/>
<path d="M15.9716 12.6502C17.4075 12.6502 18.5716 11.4861 18.5716 10.0502C18.5716 8.61426 17.4075 7.4502 15.9716 7.4502C14.5356 7.4502 13.3716 8.61426 13.3716 10.0502C13.3716 11.4861 14.5356 12.6502 15.9716 12.6502Z" stroke="#8487A3" stroke-width="1.5" stroke-miterlimit="10" stroke-linecap="round" stroke-linejoin="round"/>
<path d="M8.83154 18.4998V16.5498" stroke="#8487A3" stroke-width="1.5" stroke-miterlimit="10" stroke-linecap="round" stroke-linejoin="round"/>
<path d="M8.83154 9.4V5.5" stroke="#8487A3" stroke-width="1.5" stroke-miterlimit="10" stroke-linecap="round" stroke-linejoin="round"/>
<path d="M8.83145 16.5496C10.2674 16.5496 11.4314 15.3855 11.4314 13.9496C11.4314 12.5137 10.2674 11.3496 8.83145 11.3496C7.39551 11.3496 6.23145 12.5137 6.23145 13.9496C6.23145 15.3855 7.39551 16.5496 8.83145 16.5496Z" stroke="#8487A3" stroke-width="1.5" stroke-miterlimit="10" stroke-linecap="round" stroke-linejoin="round"/>
</svg>
