<svg width="14" height="15" viewBox="0 0 14 15" fill="none" xmlns="http://www.w3.org/2000/svg">
<path d="M8.75008 1.66699V7.50033C8.75008 8.14199 8.22508 8.66699 7.58342 8.66699H1.16675V4.94532C1.59258 5.45282 2.24593 5.76783 2.96926 5.75033C3.55843 5.73866 4.08925 5.51116 4.48592 5.13199C4.66675 4.98033 4.81843 4.78782 4.93509 4.57782C5.14509 4.22199 5.26175 3.80198 5.25008 3.36448C5.23258 2.68198 4.92926 2.08116 4.45676 1.66699H8.75008Z" stroke="#6B5DD3" stroke-linecap="round" stroke-linejoin="round"/>
<path d="M12.8334 8.66699V10.417C12.8334 11.3853 12.0517 12.167 11.0834 12.167H10.5001C10.5001 11.5253 9.97508 11.0003 9.33341 11.0003C8.69175 11.0003 8.16675 11.5253 8.16675 12.167H5.83341C5.83341 11.5253 5.30841 11.0003 4.66675 11.0003C4.02508 11.0003 3.50008 11.5253 3.50008 12.167H2.91675C1.94841 12.167 1.16675 11.3853 1.16675 10.417V8.66699H7.58341C8.22508 8.66699 8.75008 8.14199 8.75008 7.50033V3.41699H9.82343C10.2434 3.41699 10.6284 3.6445 10.8384 4.00616L11.8359 5.75033H11.0834C10.7626 5.75033 10.5001 6.01283 10.5001 6.33366V8.08366C10.5001 8.40449 10.7626 8.66699 11.0834 8.66699H12.8334Z" stroke="#6B5DD3" stroke-linecap="round" stroke-linejoin="round"/>
<path d="M4.66667 13.3333C5.311 13.3333 5.83333 12.811 5.83333 12.1667C5.83333 11.5223 5.311 11 4.66667 11C4.02233 11 3.5 11.5223 3.5 12.1667C3.5 12.811 4.02233 13.3333 4.66667 13.3333Z" stroke="#6B5DD3" stroke-linecap="round" stroke-linejoin="round"/>
<path d="M9.33341 13.3333C9.97775 13.3333 10.5001 12.811 10.5001 12.1667C10.5001 11.5223 9.97775 11 9.33341 11C8.68908 11 8.16675 11.5223 8.16675 12.1667C8.16675 12.811 8.68908 13.3333 9.33341 13.3333Z" stroke="#6B5DD3" stroke-linecap="round" stroke-linejoin="round"/>
<path d="M12.8333 7.5V8.66667H11.0833C10.7625 8.66667 10.5 8.40417 10.5 8.08333V6.33333C10.5 6.0125 10.7625 5.75 11.0833 5.75H11.8358L12.8333 7.5Z" stroke="#6B5DD3" stroke-linecap="round" stroke-linejoin="round"/>
<path d="M5.24992 3.41634C5.24992 4.11634 4.94076 4.74051 4.45659 5.16634C4.04243 5.52801 3.50575 5.74967 2.91659 5.74967C1.62742 5.74967 0.583252 4.70551 0.583252 3.41634C0.583252 2.68134 0.921585 2.02218 1.45825 1.59634C1.86075 1.27551 2.36825 1.08301 2.91659 1.08301C4.20575 1.08301 5.24992 2.12717 5.24992 3.41634Z" stroke="#6B5DD3" stroke-miterlimit="10" stroke-linecap="round" stroke-linejoin="round"/>
<path d="M3.06242 2.6875V3.5625L2.33325 4" stroke="#6B5DD3" stroke-miterlimit="10" stroke-linecap="round" stroke-linejoin="round"/>
</svg>
