<svg width="14" height="15" viewBox="0 0 14 15" fill="none" xmlns="http://www.w3.org/2000/svg">
<path d="M6.99994 8.66699H7.58327C8.22494 8.66699 8.74994 8.14199 8.74994 7.50033V1.66699H3.49994C2.62494 1.66699 1.86078 2.15115 1.46411 2.86282" stroke="#6B5DD3" stroke-linecap="round" stroke-linejoin="round"/>
<path d="M1.16675 10.417C1.16675 11.3853 1.94841 12.167 2.91675 12.167H3.50008C3.50008 11.5253 4.02508 11.0003 4.66675 11.0003C5.30842 11.0003 5.83342 11.5253 5.83342 12.167H8.16675C8.16675 11.5253 8.69175 11.0003 9.33342 11.0003C9.97508 11.0003 10.5001 11.5253 10.5001 12.167H11.0834C12.0517 12.167 12.8334 11.3853 12.8334 10.417V8.66699H11.0834C10.7626 8.66699 10.5001 8.40449 10.5001 8.08366V6.33366C10.5001 6.01283 10.7626 5.75033 11.0834 5.75033H11.8359L10.8384 4.00616C10.6284 3.6445 10.2434 3.41699 9.82343 3.41699H8.75008V7.50033C8.75008 8.14199 8.22508 8.66699 7.58342 8.66699H7.00008" stroke="#6B5DD3" stroke-linecap="round" stroke-linejoin="round"/>
<path d="M4.66667 13.3333C5.311 13.3333 5.83333 12.811 5.83333 12.1667C5.83333 11.5223 5.311 11 4.66667 11C4.02233 11 3.5 11.5223 3.5 12.1667C3.5 12.811 4.02233 13.3333 4.66667 13.3333Z" stroke="#6B5DD3" stroke-linecap="round" stroke-linejoin="round"/>
<path d="M9.33341 13.3333C9.97775 13.3333 10.5001 12.811 10.5001 12.1667C10.5001 11.5223 9.97775 11 9.33341 11C8.68908 11 8.16675 11.5223 8.16675 12.1667C8.16675 12.811 8.68908 13.3333 9.33341 13.3333Z" stroke="#6B5DD3" stroke-linecap="round" stroke-linejoin="round"/>
<path d="M12.8333 7.5V8.66667H11.0833C10.7625 8.66667 10.5 8.40417 10.5 8.08333V6.33333C10.5 6.0125 10.7625 5.75 11.0833 5.75H11.8358L12.8333 7.5Z" stroke="#6B5DD3" stroke-linecap="round" stroke-linejoin="round"/>
<path d="M1.16675 5.16699H4.66675" stroke="#6B5DD3" stroke-linecap="round" stroke-linejoin="round"/>
<path d="M1.16675 6.91699H3.50008" stroke="#6B5DD3" stroke-linecap="round" stroke-linejoin="round"/>
<path d="M1.16675 8.66699H2.33341" stroke="#6B5DD3" stroke-linecap="round" stroke-linejoin="round"/>
</svg>
