<svg width="140" height="140" viewBox="0 0 140 140" fill="none" xmlns="http://www.w3.org/2000/svg">
<mask id="mask0_654_11718" style="mask-type:alpha" maskUnits="userSpaceOnUse" x="15" y="15" width="110" height="110">
<circle cx="70" cy="70" r="55" fill="#F4F3FB"/>
</mask>
<g mask="url(#mask0_654_11718)">
<circle cx="70" cy="70" r="55" fill="#F4F3FB"/>
<path opacity="0.4" d="M70.4993 46.417C58.1635 46.417 48.1348 56.4457 48.1348 68.7816C48.1348 80.882 57.5985 90.6753 69.9344 91.0991C70.311 91.052 70.6877 91.052 70.9702 91.0991C71.0644 91.0991 71.1114 91.0991 71.2056 91.0991C71.2527 91.0991 71.2527 91.0991 71.2998 91.0991C83.3531 90.6753 92.8168 80.882 92.8639 68.7816C92.8639 56.4457 82.8352 46.417 70.4993 46.417Z" fill="white"/>
<path d="M94.4185 103.623C81.2823 94.8653 59.8593 94.8653 46.6289 103.623C40.6493 107.625 37.3535 113.039 37.3535 118.831C37.3535 124.622 40.6493 129.989 46.5818 133.944C53.1735 138.37 61.8368 140.583 70.5002 140.583C79.1635 140.583 87.8269 138.37 94.4185 133.944C100.351 129.942 103.647 124.575 103.647 118.737C103.6 112.945 100.351 107.578 94.4185 103.623Z" fill="white"/>
</g>
<path d="M22.9443 117.056C21.5957 118.404 21.5902 120.598 23.0036 121.878C29.7999 128.035 37.7487 132.804 46.4034 135.903C56.1433 139.39 66.535 140.675 76.831 139.666C87.127 138.656 97.0712 135.377 105.948 130.064C114.825 124.752 122.414 117.537 128.169 108.94C133.924 100.343 137.702 90.5779 139.231 80.3462C140.76 70.1144 140.002 59.671 137.012 49.7672C134.022 39.8634 128.874 30.7455 121.938 23.0696C115.775 16.2488 108.336 10.7173 100.054 6.78008C98.3316 5.96127 96.3058 6.80228 95.5729 8.56296C94.8401 10.3236 95.6781 12.3364 97.3961 13.1645C104.738 16.7034 111.335 21.6364 116.814 27.6998C123.065 34.6184 127.705 42.8367 130.401 51.7634C133.096 60.69 133.779 70.1031 132.401 79.3254C131.023 88.5477 127.617 97.3498 122.43 105.098C117.243 112.847 110.403 119.35 102.401 124.138C94.4003 128.927 85.4372 131.883 76.1571 132.793C66.8769 133.703 57.5104 132.544 48.7315 129.401C41.0378 126.646 33.963 122.427 27.8933 116.988C26.4731 115.715 24.2928 115.707 22.9443 117.056Z" fill="#F4F3FB"/>
<circle cx="28" cy="33" r="11" fill="#6B5DD3"/>
<path opacity="0.4" d="M25.3801 38H30.6201C32.0001 38 32.5501 37.155 32.6151 36.125L32.8751 31.995C32.9451 30.915 32.0851 30 31.0001 30C30.6951 30 30.4151 29.825 30.2751 29.555L29.9151 28.83C29.6851 28.375 29.0851 28 28.5751 28H27.4301C26.9151 28 26.3151 28.375 26.0851 28.83L25.7251 29.555C25.5851 29.825 25.3051 30 25.0001 30C23.9151 30 23.0551 30.915 23.1251 31.995L23.3851 36.125C23.4451 37.155 24.0001 38 25.3801 38Z" fill="white"/>
<path d="M28.75 31.375H27.25C27.045 31.375 26.875 31.205 26.875 31C26.875 30.795 27.045 30.625 27.25 30.625H28.75C28.955 30.625 29.125 30.795 29.125 31C29.125 31.205 28.955 31.375 28.75 31.375Z" fill="white"/>
<path d="M28.0005 36.0646C28.9339 36.0646 29.6905 35.3079 29.6905 34.3746C29.6905 33.4412 28.9339 32.6846 28.0005 32.6846C27.0672 32.6846 26.3105 33.4412 26.3105 34.3746C26.3105 35.3079 27.0672 36.0646 28.0005 36.0646Z" fill="white"/>
</svg>
