<svg width="10" height="10" viewBox="0 0 10 10" fill="none" xmlns="http://www.w3.org/2000/svg">
<path fill-rule="evenodd" clip-rule="evenodd" d="M4.85403 9.6194L4.14374 9.9375C3.83476 10.0759 3.47117 9.97845 3.27283 9.70423L2.81674 9.07353C2.75709 8.99107 2.66515 8.93791 2.56386 8.92752L1.78964 8.84792C1.45291 8.81325 1.18676 8.54711 1.1521 8.21038L1.0725 7.43617C1.06211 7.33487 1.00895 7.24294 0.926493 7.18329L0.295792 6.72719C0.0215699 6.52887 -0.0758857 6.16526 0.0624486 5.85629L0.380621 5.14599C0.422198 5.05314 0.422198 4.9469 0.380621 4.85403L0.0624486 4.14374C-0.0758875 3.83476 0.0215681 3.47117 0.295792 3.27283L0.926493 2.81674C1.00895 2.75709 1.06211 2.66515 1.0725 2.56386L1.1521 1.78964C1.18677 1.45291 1.45291 1.18676 1.78964 1.1521L2.56386 1.0725C2.66515 1.06211 2.75709 1.00895 2.81674 0.926493L3.27283 0.295792C3.47116 0.0215698 3.83476 -0.0758857 4.14374 0.0624486L4.85403 0.380621C4.94689 0.422198 5.05312 0.422198 5.14599 0.380621L5.85629 0.0624486C6.16526 -0.0758875 6.52885 0.021568 6.72719 0.295792L7.18329 0.926493C7.24293 1.00895 7.33488 1.06211 7.43617 1.0725L8.21038 1.1521C8.54711 1.18677 8.81326 1.45291 8.84793 1.78964L8.92752 2.56386C8.93792 2.66515 8.99107 2.75709 9.07353 2.81674L9.70423 3.27283C9.97845 3.47116 10.0759 3.83476 9.9375 4.14374L9.6194 4.85403C9.57783 4.94689 9.57783 5.05312 9.6194 5.14599L9.9375 5.85629C10.0759 6.16526 9.97845 6.52885 9.70423 6.72719L9.07353 7.18329C8.99107 7.24293 8.93791 7.33488 8.92752 7.43617L8.84793 8.21038C8.81325 8.54711 8.54711 8.81326 8.21038 8.84792L7.43617 8.92752C7.33487 8.93792 7.24294 8.99107 7.18329 9.07353L6.72719 9.70423C6.52887 9.97845 6.16526 10.0759 5.85629 9.9375L5.14599 9.6194C5.05314 9.57783 4.9469 9.57783 4.85403 9.6194ZM3.07017 4.32427L2.46403 4.93041L4.49886 6.96525L7.62254 3.84156L7.01645 3.23542L4.49889 5.75279L3.07017 4.32427Z" fill="white"/>
</svg>
