<svg width="20" height="15" viewBox="0 0 20 15" fill="none" xmlns="http://www.w3.org/2000/svg">
<path fill-rule="evenodd" clip-rule="evenodd" d="M15.5248 12.5088C15.468 12.6072 15.3633 12.668 15.2496 12.6687H4.7487C4.63564 12.6664 4.53218 12.6044 4.4766 12.5059C4.42113 12.4073 4.42169 12.2867 4.47827 12.1888L9.72942 3.48308C9.7879 3.38967 9.89046 3.33297 10.0006 3.33297C10.1109 3.33297 10.2133 3.38967 10.2718 3.48308L15.5215 12.1902C15.5787 12.2892 15.5787 12.4112 15.5215 12.5102L15.5248 12.5088ZM16.2399 11.76L10.9857 3.05287C10.7774 2.7079 10.4039 2.49707 10.0008 2.49707C9.59792 2.49707 9.22438 2.7079 9.016 3.05287L3.76 11.76C3.61927 11.9936 3.56603 12.2696 3.61 12.5388C3.65387 12.808 3.79204 13.0529 3.99975 13.2297C4.20745 13.4065 4.47118 13.5037 4.74395 13.504H15.2497C15.5232 13.5051 15.7882 13.4089 15.9971 13.2324C16.206 13.0559 16.3452 12.8108 16.3897 12.541C16.4342 12.2711 16.3812 11.9943 16.2401 11.76L16.2399 11.76Z" fill="#6B5DD3"/>
<path fill-rule="evenodd" clip-rule="evenodd" d="M9.99998 9.89929C10.1856 9.89929 10.448 9.79851 10.448 9.55844C10.448 8.63846 10.5568 7.31849 10.5568 6.39672C10.56 6.09438 10.3056 5.91992 10 5.91992C9.69443 5.91992 9.43994 6.09436 9.43994 6.39995C9.43994 7.31992 9.5472 8.63989 9.5472 9.56167C9.5472 9.7985 9.75679 9.89926 10 9.89926L9.99998 9.89929Z" fill="#6B5DD3"/>
<path fill-rule="evenodd" clip-rule="evenodd" d="M10.0127 10.4316C9.79996 10.4316 9.60354 10.545 9.49717 10.7292C9.39092 10.9133 9.39092 11.1402 9.49717 11.3244C9.60353 11.5085 9.79997 11.622 10.0127 11.622C10.2253 11.622 10.4218 11.5085 10.5281 11.3244C10.6344 11.1402 10.6344 10.9133 10.5281 10.7292C10.4218 10.545 10.2253 10.4316 10.0127 10.4316Z" fill="#6B5DD3"/>
</svg>
